<?xml version="1.0" encoding="UTF-8"?>
<svg id="Layer_1" data-name="Layer 1" xmlns="http://www.w3.org/2000/svg" viewBox="0 0 782.67 936.33">
  <defs>
    <style>
      .cls-1 {
        fill: none;
        stroke: #000;
        stroke-miterlimit: 10;
        stroke-width: .1px;
      }

      .cls-2 {
        fill: maroon;
      }

      .cls-2, .cls-3 {
        stroke-width: 0px;
      }

      .cls-3 {
        fill: #fff;
      }
    </style>
  </defs>
  <polyline class="cls-3" points="348.98 483.5 368.98 483.5 375.16 502.52 391.34 490.76 407.52 502.52 413.7 483.5 433.7 483.5 427.52 464.48 443.7 452.72 427.52 440.96 433.7 421.94 413.7 421.94 407.52 402.92 391.34 414.68 375.16 402.92 368.98 421.94 348.98 421.94 355.16 440.96 338.98 452.72 355.16 464.48"/>
  <polygon class="cls-1" points="348.98 483.5 368.98 483.5 375.16 502.52 391.34 490.76 407.52 502.52 413.7 483.5 433.7 483.5 427.52 464.48 443.7 452.72 427.52 440.96 433.7 421.94 413.7 421.94 407.52 402.92 391.34 414.68 375.16 402.92 368.98 421.94 348.98 421.94 355.16 440.96 338.98 452.72 355.16 464.48 348.98 483.5"/>
  <polygon class="cls-2" points="413.7 421.94 433.7 421.94 449.88 372.15 407.52 402.92 413.7 421.94"/>
  <polygon class="cls-1" points="413.7 421.94 433.7 421.94 449.88 372.15 407.52 402.92 413.7 421.94"/>
  <polygon class="cls-2" points="413.7 483.5 407.52 502.52 449.88 533.29 433.7 483.5 413.7 483.5"/>
  <polygon class="cls-1" points="413.7 483.5 407.52 502.52 449.88 533.29 433.7 483.5 413.7 483.5"/>
  <polygon class="cls-2" points="368.98 421.94 375.16 402.92 332.8 372.15 348.98 421.94 368.98 421.94"/>
  <polygon class="cls-1" points="368.98 421.94 375.16 402.92 332.8 372.15 348.98 421.94 368.98 421.94"/>
  <polygon class="cls-2" points="368.98 483.5 348.98 483.5 332.8 533.29 375.16 502.52 368.98 483.5"/>
  <polygon class="cls-1" points="368.98 483.5 348.98 483.5 332.8 533.29 375.16 502.52 368.98 483.5"/>
  <polygon class="cls-2" points="391.34 414.68 407.52 402.92 391.34 353.12 375.16 402.92 391.34 414.68"/>
  <polygon class="cls-1" points="391.34 414.68 407.52 402.92 391.34 353.12 375.16 402.92 391.34 414.68"/>
  <polygon class="cls-2" points="391.34 490.76 375.16 502.52 391.34 552.32 407.52 502.52 391.34 490.76"/>
  <polygon class="cls-1" points="391.34 490.76 375.16 502.52 391.34 552.32 407.52 502.52 391.34 490.76"/>
  <polygon class="cls-2" points="427.52 464.48 433.7 483.5 486.06 483.5 443.7 452.72 427.52 464.48"/>
  <polygon class="cls-1" points="427.52 464.48 433.7 483.5 486.06 483.5 443.7 452.72 427.52 464.48"/>
  <polygon class="cls-2" points="427.52 440.96 443.7 452.72 486.06 421.94 433.7 421.94 427.52 440.96"/>
  <polygon class="cls-1" points="427.52 440.96 443.7 452.72 486.06 421.94 433.7 421.94 427.52 440.96"/>
  <polyline class="cls-3" points="407.52 402.92 449.88 372.15 459.88 341.37 433.7 322.35 401.34 322.35 391.34 353.12"/>
  <polygon class="cls-1" points="407.52 402.92 449.88 372.15 459.88 341.37 433.7 322.35 401.34 322.35 391.34 353.12 407.52 402.92"/>
  <polyline class="cls-3" points="375.16 402.92 391.34 353.12 381.34 322.35 348.98 322.35 322.8 341.37 332.8 372.15"/>
  <polygon class="cls-1" points="375.16 402.92 391.34 353.12 381.34 322.35 348.98 322.35 322.8 341.37 332.8 372.15 375.16 402.92"/>
  <polyline class="cls-3" points="375.16 502.52 332.8 533.29 322.8 564.07 348.98 583.09 381.34 583.09 391.34 552.32"/>
  <polygon class="cls-1" points="375.16 502.52 332.8 533.29 322.8 564.07 348.98 583.09 381.34 583.09 391.34 552.32 375.16 502.52"/>
  <polyline class="cls-3" points="407.52 502.52 391.34 552.32 401.34 583.09 433.7 583.09 459.88 564.07 449.88 533.29"/>
  <polygon class="cls-1" points="407.52 502.52 391.34 552.32 401.34 583.09 433.7 583.09 459.88 564.07 449.88 533.29 407.52 502.52"/>
  <polygon class="cls-2" points="355.16 440.96 348.98 421.94 296.62 421.94 338.98 452.72 355.16 440.96"/>
  <polygon class="cls-1" points="355.16 440.96 348.98 421.94 296.62 421.94 338.98 452.72 355.16 440.96"/>
  <polygon class="cls-2" points="355.16 464.48 338.98 452.72 296.62 483.5 348.98 483.5 355.16 464.48"/>
  <polygon class="cls-1" points="355.16 464.48 338.98 452.72 296.62 483.5 348.98 483.5 355.16 464.48"/>
  <polyline class="cls-3" points="348.98 483.5 296.62 483.5 270.44 502.52 280.44 533.29 306.62 552.32 332.8 533.29"/>
  <polygon class="cls-1" points="348.98 483.5 296.62 483.5 270.44 502.52 280.44 533.29 306.62 552.32 332.8 533.29 348.98 483.5"/>
  <polyline class="cls-3" points="433.7 483.5 449.88 533.29 476.06 552.32 502.24 533.29 512.24 502.52 486.06 483.5"/>
  <polygon class="cls-1" points="433.7 483.5 449.88 533.29 476.06 552.32 502.24 533.29 512.24 502.52 486.06 483.5 433.7 483.5"/>
  <polyline class="cls-3" points="433.7 421.94 486.06 421.94 512.24 402.92 502.24 372.15 476.06 353.12 449.88 372.15"/>
  <polygon class="cls-1" points="433.7 421.94 486.06 421.94 512.24 402.92 502.24 372.15 476.06 353.12 449.88 372.15 433.7 421.94"/>
  <polyline class="cls-3" points="348.98 421.94 332.8 372.15 306.62 353.12 280.44 372.15 270.44 402.92 296.62 421.94"/>
  <polygon class="cls-1" points="348.98 421.94 332.8 372.15 306.62 353.12 280.44 372.15 270.44 402.92 296.62 421.94 348.98 421.94"/>
  <polyline class="cls-3" points="443.7 452.72 486.06 483.5 518.42 483.5 528.42 452.72 518.42 421.94 486.06 421.94"/>
  <polygon class="cls-1" points="443.7 452.72 486.06 483.5 518.42 483.5 528.42 452.72 518.42 421.94 486.06 421.94 443.7 452.72"/>
  <polyline class="cls-3" points="338.98 452.72 296.62 421.94 264.26 421.94 254.26 452.72 264.26 483.5 296.62 483.5"/>
  <polygon class="cls-1" points="338.98 452.72 296.62 421.94 264.26 421.94 254.26 452.72 264.26 483.5 296.62 483.5 338.98 452.72"/>
  <polyline class="cls-2" points="449.88 372.15 476.06 353.12 502.24 372.15 492.24 341.37 518.42 322.35 486.06 322.35 476.06 291.57 466.06 322.35 433.7 322.35 459.88 341.37"/>
  <polygon class="cls-1" points="449.88 372.15 476.06 353.12 502.24 372.15 492.24 341.37 518.42 322.35 486.06 322.35 476.06 291.57 466.06 322.35 433.7 322.35 459.88 341.37 449.88 372.15"/>
  <polyline class="cls-2" points="449.88 533.29 459.88 564.07 433.7 583.09 466.06 583.09 476.06 613.87 486.06 583.09 518.42 583.09 492.24 564.07 502.24 533.29 476.06 552.32"/>
  <polygon class="cls-1" points="449.88 533.29 459.88 564.07 433.7 583.09 466.06 583.09 476.06 613.87 486.06 583.09 518.42 583.09 492.24 564.07 502.24 533.29 476.06 552.32 449.88 533.29"/>
  <polyline class="cls-2" points="332.8 372.15 322.8 341.37 348.98 322.35 316.62 322.35 306.62 291.57 296.62 322.35 264.26 322.35 290.44 341.37 280.44 372.15 306.62 353.12"/>
  <polygon class="cls-1" points="332.8 372.15 322.8 341.37 348.98 322.35 316.62 322.35 306.62 291.57 296.62 322.35 264.26 322.35 290.44 341.37 280.44 372.15 306.62 353.12 332.8 372.15"/>
  <polyline class="cls-2" points="332.8 533.29 306.62 552.32 280.44 533.29 290.44 564.07 264.26 583.09 296.62 583.09 306.62 613.87 316.62 583.09 348.98 583.09 322.8 564.07"/>
  <polygon class="cls-1" points="332.8 533.29 306.62 552.32 280.44 533.29 290.44 564.07 264.26 583.09 296.62 583.09 306.62 613.87 316.62 583.09 348.98 583.09 322.8 564.07 332.8 533.29"/>
  <polyline class="cls-2" points="391.34 353.12 401.34 322.35 433.7 322.35 391.34 291.57 348.98 322.35 381.34 322.35"/>
  <polygon class="cls-1" points="391.34 353.12 401.34 322.35 433.7 322.35 391.34 291.57 348.98 322.35 381.34 322.35 391.34 353.12"/>
  <polyline class="cls-2" points="391.34 552.32 381.34 583.09 348.98 583.09 391.34 613.87 433.7 583.09 401.34 583.09"/>
  <polygon class="cls-1" points="391.34 552.32 381.34 583.09 348.98 583.09 391.34 613.87 433.7 583.09 401.34 583.09 391.34 552.32"/>
  <polyline class="cls-2" points="486.06 483.5 512.24 502.52 502.24 533.29 544.6 502.52 528.42 452.72 518.42 483.5"/>
  <polygon class="cls-1" points="486.06 483.5 512.24 502.52 502.24 533.29 544.6 502.52 528.42 452.72 518.42 483.5 486.06 483.5"/>
  <polyline class="cls-2" points="486.06 421.94 518.42 421.94 528.42 452.72 544.6 402.92 502.24 372.15 512.24 402.92"/>
  <polygon class="cls-1" points="486.06 421.94 518.42 421.94 528.42 452.72 544.6 402.92 502.24 372.15 512.24 402.92 486.06 421.94"/>
  <polyline class="cls-3" points="486.06 322.35 518.42 322.35 560.78 291.57 518.42 260.79 486.06 260.79 476.06 291.57"/>
  <polygon class="cls-1" points="486.06 322.35 518.42 322.35 560.78 291.57 518.42 260.79 486.06 260.79 476.06 291.57 486.06 322.35"/>
  <polyline class="cls-3" points="466.06 322.35 476.06 291.57 466.06 260.79 433.7 260.79 391.34 291.57 433.7 322.35"/>
  <polygon class="cls-1" points="466.06 322.35 476.06 291.57 466.06 260.79 433.7 260.79 391.34 291.57 433.7 322.35 466.06 322.35"/>
  <polyline class="cls-3" points="348.98 322.35 391.34 291.57 348.98 260.79 316.62 260.79 306.62 291.57 316.62 322.35"/>
  <polygon class="cls-1" points="348.98 322.35 391.34 291.57 348.98 260.79 316.62 260.79 306.62 291.57 316.62 322.35 348.98 322.35"/>
  <polyline class="cls-3" points="316.62 583.09 306.62 613.87 316.62 644.65 348.98 644.65 391.34 613.87 348.98 583.09"/>
  <polygon class="cls-1" points="316.62 583.09 306.62 613.87 316.62 644.65 348.98 644.65 391.34 613.87 348.98 583.09 316.62 583.09"/>
  <polyline class="cls-3" points="433.7 583.09 391.34 613.87 433.7 644.65 466.06 644.65 476.06 613.87 466.06 583.09"/>
  <polygon class="cls-1" points="433.7 583.09 391.34 613.87 433.7 644.65 466.06 644.65 476.06 613.87 466.06 583.09 433.7 583.09"/>
  <polyline class="cls-3" points="486.06 583.09 476.06 613.87 486.06 644.65 518.42 644.65 560.78 613.87 518.42 583.09"/>
  <polygon class="cls-1" points="486.06 583.09 476.06 613.87 486.06 644.65 518.42 644.65 560.78 613.87 518.42 583.09 486.06 583.09"/>
  <polyline class="cls-3" points="296.62 322.35 306.62 291.57 296.62 260.79 264.26 260.79 221.9 291.57 264.26 322.35"/>
  <polygon class="cls-1" points="296.62 322.35 306.62 291.57 296.62 260.79 264.26 260.79 221.9 291.57 264.26 322.35 296.62 322.35"/>
  <polyline class="cls-2" points="296.62 421.94 270.44 402.92 280.44 372.15 238.08 402.92 254.26 452.72 264.26 421.94"/>
  <polygon class="cls-1" points="296.62 421.94 270.44 402.92 280.44 372.15 238.08 402.92 254.26 452.72 264.26 421.94 296.62 421.94"/>
  <polyline class="cls-2" points="296.62 483.5 264.26 483.5 254.26 452.72 238.08 502.52 280.44 533.29 270.44 502.52"/>
  <polygon class="cls-1" points="296.62 483.5 264.26 483.5 254.26 452.72 238.08 502.52 280.44 533.29 270.44 502.52 296.62 483.5"/>
  <polyline class="cls-3" points="296.62 583.09 264.26 583.09 221.9 613.87 264.26 644.65 296.62 644.65 306.62 613.87"/>
  <polygon class="cls-1" points="296.62 583.09 264.26 583.09 221.9 613.87 264.26 644.65 296.62 644.65 306.62 613.87 296.62 583.09"/>
  <polyline class="cls-3" points="492.24 564.07 518.42 583.09 550.78 583.09 560.78 552.32 544.6 502.52 502.24 533.29"/>
  <polygon class="cls-1" points="492.24 564.07 518.42 583.09 550.78 583.09 560.78 552.32 544.6 502.52 502.24 533.29 492.24 564.07"/>
  <polyline class="cls-3" points="492.24 341.37 502.24 372.15 544.6 402.92 560.78 353.12 550.78 322.35 518.42 322.35"/>
  <polygon class="cls-1" points="492.24 341.37 502.24 372.15 544.6 402.92 560.78 353.12 550.78 322.35 518.42 322.35 492.24 341.37"/>
  <polyline class="cls-3" points="290.44 341.37 264.26 322.35 231.9 322.35 221.9 353.12 238.08 402.92 280.44 372.15"/>
  <polygon class="cls-1" points="290.44 341.37 264.26 322.35 231.9 322.35 221.9 353.12 238.08 402.92 280.44 372.15 290.44 341.37"/>
  <polyline class="cls-3" points="290.44 564.07 280.44 533.29 238.08 502.52 221.9 552.32 231.9 583.09 264.26 583.09"/>
  <polygon class="cls-1" points="290.44 564.07 280.44 533.29 238.08 502.52 221.9 552.32 231.9 583.09 264.26 583.09 290.44 564.07"/>
  <polyline class="cls-2" points="476.06 291.57 486.06 260.79 518.42 260.79 492.24 241.77 502.24 211 476.06 230.02 449.88 211 459.88 241.77 433.7 260.79 466.06 260.79"/>
  <polygon class="cls-1" points="476.06 291.57 486.06 260.79 518.42 260.79 492.24 241.77 502.24 211 476.06 230.02 449.88 211 459.88 241.77 433.7 260.79 466.06 260.79 476.06 291.57"/>
  <polyline class="cls-2" points="391.34 291.57 433.7 260.79 401.34 260.79 391.34 230.02 381.34 260.79 348.98 260.79"/>
  <polygon class="cls-1" points="391.34 291.57 433.7 260.79 401.34 260.79 391.34 230.02 381.34 260.79 348.98 260.79 391.34 291.57"/>
  <polyline class="cls-2" points="306.62 291.57 316.62 260.79 348.98 260.79 322.8 241.77 332.8 211 306.62 230.02 280.44 211 290.44 241.77 264.26 260.79 296.62 260.79"/>
  <polygon class="cls-1" points="306.62 291.57 316.62 260.79 348.98 260.79 322.8 241.77 332.8 211 306.62 230.02 280.44 211 290.44 241.77 264.26 260.79 296.62 260.79 306.62 291.57"/>
  <polyline class="cls-2" points="306.62 613.87 296.62 644.65 264.26 644.65 290.44 663.67 280.44 694.44 306.62 675.42 332.8 694.44 322.8 663.67 348.98 644.65 316.62 644.65"/>
  <polygon class="cls-1" points="306.62 613.87 296.62 644.65 264.26 644.65 290.44 663.67 280.44 694.44 306.62 675.42 332.8 694.44 322.8 663.67 348.98 644.65 316.62 644.65 306.62 613.87"/>
  <polyline class="cls-2" points="391.34 613.87 348.98 644.65 381.34 644.65 391.34 675.42 401.34 644.65 433.7 644.65"/>
  <polygon class="cls-1" points="391.34 613.87 348.98 644.65 381.34 644.65 391.34 675.42 401.34 644.65 433.7 644.65 391.34 613.87"/>
  <polyline class="cls-2" points="476.06 613.87 466.06 644.65 433.7 644.65 459.88 663.67 449.88 694.44 476.06 675.42 502.24 694.44 492.24 663.67 518.42 644.65 486.06 644.65"/>
  <polygon class="cls-1" points="476.06 613.87 466.06 644.65 433.7 644.65 459.88 663.67 449.88 694.44 476.06 675.42 502.24 694.44 492.24 663.67 518.42 644.65 486.06 644.65 476.06 613.87"/>
  <polyline class="cls-2" points="518.42 583.09 560.78 613.87 603.14 583.09 570.78 583.09 560.78 552.32 550.78 583.09"/>
  <polygon class="cls-1" points="518.42 583.09 560.78 613.87 603.14 583.09 570.78 583.09 560.78 552.32 550.78 583.09 518.42 583.09"/>
  <polyline class="cls-2" points="518.42 322.35 550.78 322.35 560.78 353.12 570.78 322.35 603.14 322.35 560.78 291.57"/>
  <polygon class="cls-1" points="518.42 322.35 550.78 322.35 560.78 353.12 570.78 322.35 603.14 322.35 560.78 291.57 518.42 322.35"/>
  <polyline class="cls-2" points="264.26 322.35 221.9 291.57 179.54 322.35 211.9 322.35 221.9 353.12 231.9 322.35"/>
  <polygon class="cls-1" points="264.26 322.35 221.9 291.57 179.54 322.35 211.9 322.35 221.9 353.12 231.9 322.35 264.26 322.35"/>
  <polyline class="cls-2" points="264.26 583.09 231.9 583.09 221.9 552.32 211.9 583.09 179.54 583.09 221.9 613.87"/>
  <polygon class="cls-1" points="264.26 583.09 231.9 583.09 221.9 552.32 211.9 583.09 179.54 583.09 221.9 613.87 264.26 583.09"/>
  <polyline class="cls-3" points="528.42 452.72 544.6 502.52 560.78 490.76 576.96 502.52 593.14 452.72 576.96 402.92 560.78 414.68 544.6 402.92"/>
  <polygon class="cls-1" points="528.42 452.72 544.6 502.52 560.78 490.76 576.96 502.52 593.14 452.72 576.96 402.92 560.78 414.68 544.6 402.92 528.42 452.72"/>
  <polyline class="cls-3" points="518.42 260.79 550.78 260.79 560.78 230.02 544.6 180.22 502.24 211 492.24 241.77"/>
  <polygon class="cls-1" points="518.42 260.79 550.78 260.79 560.78 230.02 544.6 180.22 502.24 211 492.24 241.77 518.42 260.79"/>
  <polyline class="cls-2" points="518.42 260.79 560.78 291.57 603.14 260.79 570.78 260.79 560.78 230.02 550.78 260.79"/>
  <polygon class="cls-1" points="518.42 260.79 560.78 291.57 603.14 260.79 570.78 260.79 560.78 230.02 550.78 260.79 518.42 260.79"/>
  <polyline class="cls-3" points="433.7 260.79 459.88 241.77 449.88 211 407.52 180.22 391.34 230.02 401.34 260.79"/>
  <polygon class="cls-1" points="433.7 260.79 459.88 241.77 449.88 211 407.52 180.22 391.34 230.02 401.34 260.79 433.7 260.79"/>
  <polyline class="cls-3" points="381.34 260.79 391.34 230.02 375.16 180.22 332.8 211 322.8 241.77 348.98 260.79"/>
  <polygon class="cls-1" points="381.34 260.79 391.34 230.02 375.16 180.22 332.8 211 322.8 241.77 348.98 260.79 381.34 260.79"/>
  <polyline class="cls-2" points="264.26 260.79 231.9 260.79 221.9 230.02 211.9 260.79 179.54 260.79 221.9 291.57"/>
  <polygon class="cls-1" points="264.26 260.79 231.9 260.79 221.9 230.02 211.9 260.79 179.54 260.79 221.9 291.57 264.26 260.79"/>
  <polyline class="cls-3" points="264.26 260.79 290.44 241.77 280.44 211 238.08 180.22 221.9 230.02 231.9 260.79"/>
  <polygon class="cls-1" points="264.26 260.79 290.44 241.77 280.44 211 238.08 180.22 221.9 230.02 231.9 260.79 264.26 260.79"/>
  <polyline class="cls-3" points="254.26 452.72 238.08 402.92 221.9 414.68 205.72 402.92 189.54 452.72 205.72 502.52 221.9 490.76 238.08 502.52"/>
  <polygon class="cls-1" points="254.26 452.72 238.08 402.92 221.9 414.68 205.72 402.92 189.54 452.72 205.72 502.52 221.9 490.76 238.08 502.52 254.26 452.72"/>
  <polyline class="cls-3" points="264.26 644.65 231.9 644.65 221.9 675.42 238.08 725.22 280.44 694.44 290.44 663.67"/>
  <polygon class="cls-1" points="264.26 644.65 231.9 644.65 221.9 675.42 238.08 725.22 280.44 694.44 290.44 663.67 264.26 644.65"/>
  <polyline class="cls-2" points="264.26 644.65 221.9 613.87 179.54 644.65 211.9 644.65 221.9 675.42 231.9 644.65"/>
  <polygon class="cls-1" points="264.26 644.65 221.9 613.87 179.54 644.65 211.9 644.65 221.9 675.42 231.9 644.65 264.26 644.65"/>
  <polyline class="cls-3" points="348.98 644.65 322.8 663.67 332.8 694.44 375.16 725.22 391.34 675.42 381.34 644.65"/>
  <polygon class="cls-1" points="348.98 644.65 322.8 663.67 332.8 694.44 375.16 725.22 391.34 675.42 381.34 644.65 348.98 644.65"/>
  <polyline class="cls-3" points="401.34 644.65 391.34 675.42 407.52 725.22 449.88 694.44 459.88 663.67 433.7 644.65"/>
  <polygon class="cls-1" points="401.34 644.65 391.34 675.42 407.52 725.22 449.88 694.44 459.88 663.67 433.7 644.65 401.34 644.65"/>
  <polyline class="cls-2" points="518.42 644.65 550.78 644.65 560.78 675.42 570.78 644.65 603.14 644.65 560.78 613.87"/>
  <polygon class="cls-1" points="518.42 644.65 550.78 644.65 560.78 675.42 570.78 644.65 603.14 644.65 560.78 613.87 518.42 644.65"/>
  <polyline class="cls-3" points="518.42 644.65 492.24 663.67 502.24 694.44 544.6 725.22 560.78 675.42 550.78 644.65"/>
  <polygon class="cls-1" points="518.42 644.65 492.24 663.67 502.24 694.44 544.6 725.22 560.78 675.42 550.78 644.65 518.42 644.65"/>
  <polygon class="cls-2" points="544.6 502.52 560.78 552.32 576.96 502.52 560.78 490.76 544.6 502.52"/>
  <polygon class="cls-1" points="544.6 502.52 560.78 552.32 576.96 502.52 560.78 490.76 544.6 502.52"/>
  <polygon class="cls-2" points="544.6 402.92 560.78 414.68 576.96 402.92 560.78 353.12 544.6 402.92"/>
  <polygon class="cls-1" points="544.6 402.92 560.78 414.68 576.96 402.92 560.78 353.12 544.6 402.92"/>
  <polygon class="cls-2" points="238.08 402.92 221.9 353.12 205.72 402.92 221.9 414.68 238.08 402.92"/>
  <polygon class="cls-1" points="238.08 402.92 221.9 353.12 205.72 402.92 221.9 414.68 238.08 402.92"/>
  <polygon class="cls-2" points="238.08 502.52 221.9 490.76 205.72 502.52 221.9 552.32 238.08 502.52"/>
  <polygon class="cls-1" points="238.08 502.52 221.9 490.76 205.72 502.52 221.9 552.32 238.08 502.52"/>
  <polyline class="cls-3" points="476.06 230.02 502.24 211 512.24 180.22 486.06 161.2 433.7 161.2 449.88 211"/>
  <polygon class="cls-1" points="476.06 230.02 502.24 211 512.24 180.22 486.06 161.2 433.7 161.2 449.88 211 476.06 230.02"/>
  <polygon class="cls-2" points="391.34 230.02 407.52 180.22 391.34 168.46 375.16 180.22 391.34 230.02"/>
  <polygon class="cls-1" points="391.34 230.02 407.52 180.22 391.34 168.46 375.16 180.22 391.34 230.02"/>
  <polyline class="cls-3" points="306.62 230.02 332.8 211 348.98 161.2 296.62 161.2 270.44 180.22 280.44 211"/>
  <polygon class="cls-1" points="306.62 230.02 332.8 211 348.98 161.2 296.62 161.2 270.44 180.22 280.44 211 306.62 230.02"/>
  <polyline class="cls-3" points="306.62 675.42 280.44 694.44 270.44 725.22 296.62 744.24 348.98 744.24 332.8 694.44"/>
  <polygon class="cls-1" points="306.62 675.42 280.44 694.44 270.44 725.22 296.62 744.24 348.98 744.24 332.8 694.44 306.62 675.42"/>
  <polygon class="cls-2" points="391.34 675.42 375.16 725.22 391.34 736.98 407.52 725.22 391.34 675.42"/>
  <polygon class="cls-1" points="391.34 675.42 375.16 725.22 391.34 736.98 407.52 725.22 391.34 675.42"/>
  <polyline class="cls-3" points="476.06 675.42 449.88 694.44 433.7 744.24 486.06 744.24 512.24 725.22 502.24 694.44"/>
  <polygon class="cls-1" points="476.06 675.42 449.88 694.44 433.7 744.24 486.06 744.24 512.24 725.22 502.24 694.44 476.06 675.42"/>
  <polyline class="cls-3" points="560.78 675.42 576.96 725.22 619.32 694.44 629.32 663.67 603.14 644.65 570.78 644.65"/>
  <polygon class="cls-1" points="560.78 675.42 576.96 725.22 619.32 694.44 629.32 663.67 603.14 644.65 570.78 644.65 560.78 675.42"/>
  <polygon class="cls-2" points="560.78 675.42 544.6 725.22 560.78 736.98 576.96 725.22 560.78 675.42"/>
  <polygon class="cls-1" points="560.78 675.42 544.6 725.22 560.78 736.98 576.96 725.22 560.78 675.42"/>
  <polyline class="cls-3" points="560.78 613.87 603.14 644.65 635.5 644.65 645.5 613.87 635.5 583.09 603.14 583.09"/>
  <polygon class="cls-1" points="560.78 613.87 603.14 644.65 635.5 644.65 645.5 613.87 635.5 583.09 603.14 583.09 560.78 613.87"/>
  <polyline class="cls-3" points="560.78 552.32 570.78 583.09 603.14 583.09 629.32 564.07 619.32 533.29 576.96 502.52"/>
  <polygon class="cls-1" points="560.78 552.32 570.78 583.09 603.14 583.09 629.32 564.07 619.32 533.29 576.96 502.52 560.78 552.32"/>
  <polyline class="cls-3" points="560.78 353.12 576.96 402.92 619.32 372.15 629.32 341.37 603.14 322.35 570.78 322.35"/>
  <polygon class="cls-1" points="560.78 353.12 576.96 402.92 619.32 372.15 629.32 341.37 603.14 322.35 570.78 322.35 560.78 353.12"/>
  <polyline class="cls-3" points="560.78 291.57 603.14 322.35 635.5 322.35 645.5 291.57 635.5 260.79 603.14 260.79"/>
  <polygon class="cls-1" points="560.78 291.57 603.14 322.35 635.5 322.35 645.5 291.57 635.5 260.79 603.14 260.79 560.78 291.57"/>
  <polygon class="cls-2" points="560.78 230.02 576.96 180.22 560.78 168.46 544.6 180.22 560.78 230.02"/>
  <polygon class="cls-1" points="560.78 230.02 576.96 180.22 560.78 168.46 544.6 180.22 560.78 230.02"/>
  <polyline class="cls-3" points="560.78 230.02 570.78 260.79 603.14 260.79 629.32 241.77 619.32 211 576.96 180.22"/>
  <polygon class="cls-1" points="560.78 230.02 570.78 260.79 603.14 260.79 629.32 241.77 619.32 211 576.96 180.22 560.78 230.02"/>
  <polyline class="cls-3" points="221.9 230.02 205.72 180.22 163.35 211 153.35 241.77 179.54 260.79 211.9 260.79"/>
  <polygon class="cls-1" points="221.9 230.02 205.72 180.22 163.35 211 153.35 241.77 179.54 260.79 211.9 260.79 221.9 230.02"/>
  <polygon class="cls-2" points="221.9 230.02 238.08 180.22 221.9 168.46 205.72 180.22 221.9 230.02"/>
  <polygon class="cls-1" points="221.9 230.02 238.08 180.22 221.9 168.46 205.72 180.22 221.9 230.02"/>
  <polyline class="cls-3" points="221.9 291.57 179.54 260.79 147.18 260.79 137.18 291.57 147.18 322.35 179.54 322.35"/>
  <polygon class="cls-1" points="221.9 291.57 179.54 260.79 147.18 260.79 137.18 291.57 147.18 322.35 179.54 322.35 221.9 291.57"/>
  <polyline class="cls-3" points="221.9 353.12 211.9 322.35 179.54 322.35 153.35 341.37 163.35 372.15 205.72 402.92"/>
  <polygon class="cls-1" points="221.9 353.12 211.9 322.35 179.54 322.35 153.35 341.37 163.35 372.15 205.72 402.92 221.9 353.12"/>
  <polyline class="cls-3" points="221.9 552.32 205.72 502.52 163.35 533.29 153.35 564.07 179.54 583.09 211.9 583.09"/>
  <polygon class="cls-1" points="221.9 552.32 205.72 502.52 163.35 533.29 153.35 564.07 179.54 583.09 211.9 583.09 221.9 552.32"/>
  <polyline class="cls-3" points="221.9 613.87 179.54 583.09 147.18 583.09 137.18 613.87 147.18 644.65 179.54 644.65"/>
  <polygon class="cls-1" points="221.9 613.87 179.54 583.09 147.18 583.09 137.18 613.87 147.18 644.65 179.54 644.65 221.9 613.87"/>
  <polygon class="cls-2" points="221.9 675.42 205.72 725.22 221.9 736.98 238.08 725.22 221.9 675.42"/>
  <polygon class="cls-1" points="221.9 675.42 205.72 725.22 221.9 736.98 238.08 725.22 221.9 675.42"/>
  <polyline class="cls-3" points="221.9 675.42 211.9 644.65 179.54 644.65 153.35 663.67 163.35 694.44 205.72 725.22"/>
  <polygon class="cls-1" points="221.9 675.42 211.9 644.65 179.54 644.65 153.35 663.67 163.35 694.44 205.72 725.22 221.9 675.42"/>
  <polyline class="cls-2" points="502.24 211 544.6 180.22 528.42 130.42 518.42 161.2 486.06 161.2 512.24 180.22"/>
  <polygon class="cls-1" points="502.24 211 544.6 180.22 528.42 130.42 518.42 161.2 486.06 161.2 512.24 180.22 502.24 211"/>
  <polygon class="cls-2" points="449.88 211 433.7 161.2 413.7 161.2 407.52 180.22 449.88 211"/>
  <polygon class="cls-1" points="449.88 211 433.7 161.2 413.7 161.2 407.52 180.22 449.88 211"/>
  <polygon class="cls-2" points="332.8 211 375.16 180.22 368.98 161.2 348.98 161.2 332.8 211"/>
  <polygon class="cls-1" points="332.8 211 375.16 180.22 368.98 161.2 348.98 161.2 332.8 211"/>
  <polyline class="cls-2" points="280.44 211 270.44 180.22 296.62 161.2 264.26 161.2 254.26 130.42 238.08 180.22"/>
  <polygon class="cls-1" points="280.44 211 270.44 180.22 296.62 161.2 264.26 161.2 254.26 130.42 238.08 180.22 280.44 211"/>
  <polyline class="cls-2" points="280.44 694.44 238.08 725.22 254.26 775.02 264.26 744.24 296.62 744.24 270.44 725.22"/>
  <polygon class="cls-1" points="280.44 694.44 238.08 725.22 254.26 775.02 264.26 744.24 296.62 744.24 270.44 725.22 280.44 694.44"/>
  <polygon class="cls-2" points="332.8 694.44 348.98 744.24 368.98 744.24 375.16 725.22 332.8 694.44"/>
  <polygon class="cls-1" points="332.8 694.44 348.98 744.24 368.98 744.24 375.16 725.22 332.8 694.44"/>
  <polygon class="cls-2" points="449.88 694.44 407.52 725.22 413.7 744.24 433.7 744.24 449.88 694.44"/>
  <polygon class="cls-1" points="449.88 694.44 407.52 725.22 413.7 744.24 433.7 744.24 449.88 694.44"/>
  <polyline class="cls-2" points="502.24 694.44 512.24 725.22 486.06 744.24 518.42 744.24 528.42 775.02 544.6 725.22"/>
  <polygon class="cls-1" points="502.24 694.44 512.24 725.22 486.06 744.24 518.42 744.24 528.42 775.02 544.6 725.22 502.24 694.44"/>
  <polyline class="cls-2" points="576.96 502.52 619.32 533.29 609.32 502.52 635.5 483.5 603.14 483.5 593.14 452.72"/>
  <polygon class="cls-1" points="576.96 502.52 619.32 533.29 609.32 502.52 635.5 483.5 603.14 483.5 593.14 452.72 576.96 502.52"/>
  <polyline class="cls-2" points="576.96 402.92 593.14 452.72 603.14 421.94 635.5 421.94 609.32 402.92 619.32 372.15"/>
  <polygon class="cls-1" points="576.96 402.92 593.14 452.72 603.14 421.94 635.5 421.94 609.32 402.92 619.32 372.15 576.96 402.92"/>
  <polyline class="cls-2" points="205.72 402.92 163.35 372.15 173.35 402.92 147.18 421.94 179.54 421.94 189.54 452.72"/>
  <polygon class="cls-1" points="205.72 402.92 163.35 372.15 173.35 402.92 147.18 421.94 179.54 421.94 189.54 452.72 205.72 402.92"/>
  <polyline class="cls-2" points="205.72 502.52 189.54 452.72 179.54 483.5 147.18 483.5 173.35 502.52 163.35 533.29"/>
  <polygon class="cls-1" points="205.72 502.52 189.54 452.72 179.54 483.5 147.18 483.5 173.35 502.52 163.35 533.29 205.72 502.52"/>
  <polyline class="cls-3" points="576.96 180.22 593.14 130.42 576.96 80.62 560.78 92.38 544.6 80.62 528.42 130.42 544.6 180.22 560.78 168.46"/>
  <polygon class="cls-1" points="576.96 180.22 593.14 130.42 576.96 80.62 560.78 92.38 544.6 80.62 528.42 130.42 544.6 180.22 560.78 168.46 576.96 180.22"/>
  <polyline class="cls-2" points="576.96 180.22 619.32 211 609.32 180.22 635.5 161.2 603.14 161.2 593.14 130.42"/>
  <polygon class="cls-1" points="576.96 180.22 619.32 211 609.32 180.22 635.5 161.2 603.14 161.2 593.14 130.42 576.96 180.22"/>
  <polyline class="cls-3" points="407.52 180.22 413.7 161.2 433.7 161.2 427.52 142.18 443.7 130.42 427.52 118.66 433.7 99.64 413.7 99.64 407.52 80.62 391.34 92.38 375.16 80.62 368.98 99.64 348.98 99.64 355.16 118.66 338.98 130.42 355.16 142.18 348.98 161.2 368.98 161.2 375.16 180.22 391.34 168.46"/>
  <polygon class="cls-1" points="407.52 180.22 413.7 161.2 433.7 161.2 427.52 142.18 443.7 130.42 427.52 118.66 433.7 99.64 413.7 99.64 407.52 80.62 391.34 92.38 375.16 80.62 368.98 99.64 348.98 99.64 355.16 118.66 338.98 130.42 355.16 142.18 348.98 161.2 368.98 161.2 375.16 180.22 391.34 168.46 407.52 180.22"/>
  <polyline class="cls-3" points="238.08 180.22 254.26 130.42 238.08 80.62 221.9 92.38 205.72 80.62 189.54 130.42 205.72 180.22 221.9 168.46"/>
  <polygon class="cls-1" points="238.08 180.22 254.26 130.42 238.08 80.62 221.9 92.38 205.72 80.62 189.54 130.42 205.72 180.22 221.9 168.46 238.08 180.22"/>
  <polyline class="cls-2" points="205.72 180.22 189.54 130.42 179.54 161.2 147.18 161.2 173.35 180.22 163.35 211"/>
  <polygon class="cls-1" points="205.72 180.22 189.54 130.42 179.54 161.2 147.18 161.2 173.35 180.22 163.35 211 205.72 180.22"/>
  <polyline class="cls-3" points="205.72 725.22 189.54 775.02 205.72 824.82 221.9 813.06 238.08 824.82 254.26 775.02 238.08 725.22 221.9 736.98"/>
  <polygon class="cls-1" points="205.72 725.22 189.54 775.02 205.72 824.82 221.9 813.06 238.08 824.82 254.26 775.02 238.08 725.22 221.9 736.98 205.72 725.22"/>
  <polyline class="cls-2" points="205.72 725.22 163.35 694.44 173.35 725.22 147.18 744.24 179.54 744.24 189.54 775.02"/>
  <polygon class="cls-1" points="205.72 725.22 163.35 694.44 173.35 725.22 147.18 744.24 179.54 744.24 189.54 775.02 205.72 725.22"/>
  <polyline class="cls-3" points="375.16 725.22 368.98 744.24 348.98 744.24 355.16 763.26 338.98 775.02 355.16 786.77 348.98 805.8 368.98 805.8 375.16 824.82 391.34 813.06 407.52 824.82 413.7 805.8 433.7 805.8 427.52 786.77 443.7 775.02 427.52 763.26 433.7 744.24 413.7 744.24 407.52 725.22 391.34 736.98"/>
  <polygon class="cls-1" points="375.16 725.22 368.98 744.24 348.98 744.24 355.16 763.26 338.98 775.02 355.16 786.77 348.98 805.8 368.98 805.8 375.16 824.82 391.34 813.06 407.52 824.82 413.7 805.8 433.7 805.8 427.52 786.77 443.7 775.02 427.52 763.26 433.7 744.24 413.7 744.24 407.52 725.22 391.34 736.98 375.16 725.22"/>
  <polyline class="cls-3" points="544.6 725.22 528.42 775.02 544.6 824.82 560.78 813.06 576.96 824.82 593.14 775.02 576.96 725.22 560.78 736.98"/>
  <polygon class="cls-1" points="544.6 725.22 528.42 775.02 544.6 824.82 560.78 813.06 576.96 824.82 593.14 775.02 576.96 725.22 560.78 736.98 544.6 725.22"/>
  <polyline class="cls-2" points="576.96 725.22 593.14 775.02 603.14 744.24 635.5 744.24 609.32 725.22 619.32 694.44"/>
  <polygon class="cls-1" points="576.96 725.22 593.14 775.02 603.14 744.24 635.5 744.24 609.32 725.22 619.32 694.44 576.96 725.22"/>
  <polyline class="cls-3" points="593.14 452.72 603.14 483.5 635.5 483.5 677.87 452.72 635.5 421.94 603.14 421.94"/>
  <polygon class="cls-1" points="593.14 452.72 603.14 483.5 635.5 483.5 677.87 452.72 635.5 421.94 603.14 421.94 593.14 452.72"/>
  <polyline class="cls-3" points="189.54 452.72 179.54 421.94 147.18 421.94 104.82 452.72 147.18 483.5 179.54 483.5"/>
  <polygon class="cls-1" points="189.54 452.72 179.54 421.94 147.18 421.94 104.82 452.72 147.18 483.5 179.54 483.5 189.54 452.72"/>
  <polyline class="cls-2" points="603.14 644.65 629.32 663.67 619.32 694.44 645.5 675.42 671.68 694.44 661.68 663.67 687.87 644.65 655.5 644.65 645.5 613.87 635.5 644.65"/>
  <polygon class="cls-1" points="603.14 644.65 629.32 663.67 619.32 694.44 645.5 675.42 671.68 694.44 661.68 663.67 687.87 644.65 655.5 644.65 645.5 613.87 635.5 644.65 603.14 644.65"/>
  <polyline class="cls-2" points="603.14 583.09 635.5 583.09 645.5 613.87 655.5 583.09 687.87 583.09 661.68 564.07 671.68 533.29 645.5 552.32 619.32 533.29 629.32 564.07"/>
  <polygon class="cls-1" points="603.14 583.09 635.5 583.09 645.5 613.87 655.5 583.09 687.87 583.09 661.68 564.07 671.68 533.29 645.5 552.32 619.32 533.29 629.32 564.07 603.14 583.09"/>
  <polyline class="cls-2" points="603.14 322.35 629.32 341.37 619.32 372.15 645.5 353.12 671.68 372.15 661.68 341.37 687.87 322.35 655.5 322.35 645.5 291.57 635.5 322.35"/>
  <polygon class="cls-1" points="603.14 322.35 629.32 341.37 619.32 372.15 645.5 353.12 671.68 372.15 661.68 341.37 687.87 322.35 655.5 322.35 645.5 291.57 635.5 322.35 603.14 322.35"/>
  <polyline class="cls-2" points="603.14 260.79 635.5 260.79 645.5 291.57 655.5 260.79 687.87 260.79 661.68 241.77 671.68 211 645.5 230.02 619.32 211 629.32 241.77"/>
  <polygon class="cls-1" points="603.14 260.79 635.5 260.79 645.5 291.57 655.5 260.79 687.87 260.79 661.68 241.77 671.68 211 645.5 230.02 619.32 211 629.32 241.77 603.14 260.79"/>
  <polyline class="cls-3" points="603.14 161.2 635.5 161.2 677.87 130.42 635.5 99.64 603.14 99.64 593.14 130.42"/>
  <polygon class="cls-1" points="603.14 161.2 635.5 161.2 677.87 130.42 635.5 99.64 603.14 99.64 593.14 130.42 603.14 161.2"/>
  <polyline class="cls-3" points="518.42 161.2 528.42 130.42 518.42 99.64 486.06 99.64 443.7 130.42 486.06 161.2"/>
  <polygon class="cls-1" points="518.42 161.2 528.42 130.42 518.42 99.64 486.06 99.64 443.7 130.42 486.06 161.2 518.42 161.2"/>
  <polygon class="cls-2" points="486.06 161.2 443.7 130.42 427.52 142.18 433.7 161.2 486.06 161.2"/>
  <polygon class="cls-1" points="486.06 161.2 443.7 130.42 427.52 142.18 433.7 161.2 486.06 161.2"/>
  <polygon class="cls-2" points="348.98 161.2 355.16 142.18 338.98 130.42 296.62 161.2 348.98 161.2"/>
  <polygon class="cls-1" points="348.98 161.2 355.16 142.18 338.98 130.42 296.62 161.2 348.98 161.2"/>
  <polyline class="cls-3" points="296.62 161.2 338.98 130.42 296.62 99.64 264.26 99.64 254.26 130.42 264.26 161.2"/>
  <polygon class="cls-1" points="296.62 161.2 338.98 130.42 296.62 99.64 264.26 99.64 254.26 130.42 264.26 161.2 296.62 161.2"/>
  <polyline class="cls-3" points="264.26 744.24 254.26 775.02 264.26 805.8 296.62 805.8 338.98 775.02 296.62 744.24"/>
  <polygon class="cls-1" points="264.26 744.24 254.26 775.02 264.26 805.8 296.62 805.8 338.98 775.02 296.62 744.24 264.26 744.24"/>
  <polygon class="cls-2" points="296.62 744.24 338.98 775.02 355.16 763.26 348.98 744.24 296.62 744.24"/>
  <polygon class="cls-1" points="296.62 744.24 338.98 775.02 355.16 763.26 348.98 744.24 296.62 744.24"/>
  <polygon class="cls-2" points="433.7 744.24 427.52 763.26 443.7 775.02 486.06 744.24 433.7 744.24"/>
  <polygon class="cls-1" points="433.7 744.24 427.52 763.26 443.7 775.02 486.06 744.24 433.7 744.24"/>
  <polyline class="cls-3" points="486.06 744.24 443.7 775.02 486.06 805.8 518.42 805.8 528.42 775.02 518.42 744.24"/>
  <polygon class="cls-1" points="486.06 744.24 443.7 775.02 486.06 805.8 518.42 805.8 528.42 775.02 518.42 744.24 486.06 744.24"/>
  <polyline class="cls-3" points="603.14 744.24 593.14 775.02 603.14 805.8 635.5 805.8 677.87 775.02 635.5 744.24"/>
  <polygon class="cls-1" points="603.14 744.24 593.14 775.02 603.14 805.8 635.5 805.8 677.87 775.02 635.5 744.24 603.14 744.24"/>
  <polyline class="cls-3" points="179.54 161.2 189.54 130.42 179.54 99.64 147.18 99.64 104.82 130.42 147.18 161.2"/>
  <polygon class="cls-1" points="179.54 161.2 189.54 130.42 179.54 99.64 147.18 99.64 104.82 130.42 147.18 161.2 179.54 161.2"/>
  <polyline class="cls-2" points="179.54 260.79 153.35 241.77 163.35 211 137.18 230.02 111 211 121 241.77 94.82 260.79 127.18 260.79 137.18 291.57 147.18 260.79"/>
  <polygon class="cls-1" points="179.54 260.79 153.35 241.77 163.35 211 137.18 230.02 111 211 121 241.77 94.82 260.79 127.18 260.79 137.18 291.57 147.18 260.79 179.54 260.79"/>
  <polyline class="cls-2" points="179.54 322.35 147.18 322.35 137.18 291.57 127.18 322.35 94.82 322.35 121 341.37 111 372.15 137.18 353.12 163.35 372.15 153.35 341.37"/>
  <polygon class="cls-1" points="179.54 322.35 147.18 322.35 137.18 291.57 127.18 322.35 94.82 322.35 121 341.37 111 372.15 137.18 353.12 163.35 372.15 153.35 341.37 179.54 322.35"/>
  <polyline class="cls-2" points="179.54 583.09 153.35 564.07 163.35 533.29 137.18 552.32 111 533.29 121 564.07 94.82 583.09 127.18 583.09 137.18 613.87 147.18 583.09"/>
  <polygon class="cls-1" points="179.54 583.09 153.35 564.07 163.35 533.29 137.18 552.32 111 533.29 121 564.07 94.82 583.09 127.18 583.09 137.18 613.87 147.18 583.09 179.54 583.09"/>
  <polyline class="cls-2" points="179.54 644.65 147.18 644.65 137.18 613.87 127.18 644.65 94.82 644.65 121 663.67 111 694.44 137.18 675.42 163.35 694.44 153.35 663.67"/>
  <polygon class="cls-1" points="179.54 644.65 147.18 644.65 137.18 613.87 127.18 644.65 94.82 644.65 121 663.67 111 694.44 137.18 675.42 163.35 694.44 153.35 663.67 179.54 644.65"/>
  <polyline class="cls-3" points="179.54 744.24 147.18 744.24 104.82 775.02 147.18 805.8 179.54 805.8 189.54 775.02"/>
  <polygon class="cls-1" points="179.54 744.24 147.18 744.24 104.82 775.02 147.18 805.8 179.54 805.8 189.54 775.02 179.54 744.24"/>
  <polyline class="cls-3" points="609.32 725.22 635.5 744.24 687.87 744.24 671.68 694.44 645.5 675.42 619.32 694.44"/>
  <polygon class="cls-1" points="609.32 725.22 635.5 744.24 687.87 744.24 671.68 694.44 645.5 675.42 619.32 694.44 609.32 725.22"/>
  <polyline class="cls-3" points="609.32 502.52 619.32 533.29 645.5 552.32 671.68 533.29 687.87 483.5 635.5 483.5"/>
  <polygon class="cls-1" points="609.32 502.52 619.32 533.29 645.5 552.32 671.68 533.29 687.87 483.5 635.5 483.5 609.32 502.52"/>
  <polyline class="cls-3" points="609.32 402.92 635.5 421.94 687.87 421.94 671.68 372.15 645.5 353.12 619.32 372.15"/>
  <polygon class="cls-1" points="609.32 402.92 635.5 421.94 687.87 421.94 671.68 372.15 645.5 353.12 619.32 372.15 609.32 402.92"/>
  <polyline class="cls-3" points="609.32 180.22 619.32 211 645.5 230.02 671.68 211 687.87 161.2 635.5 161.2"/>
  <polygon class="cls-1" points="609.32 180.22 619.32 211 645.5 230.02 671.68 211 687.87 161.2 635.5 161.2 609.32 180.22"/>
  <polyline class="cls-3" points="173.35 180.22 147.18 161.2 94.82 161.2 111 211 137.18 230.02 163.35 211"/>
  <polygon class="cls-1" points="173.35 180.22 147.18 161.2 94.82 161.2 111 211 137.18 230.02 163.35 211 173.35 180.22"/>
  <polyline class="cls-3" points="173.35 402.92 163.35 372.15 137.18 353.12 111 372.15 94.82 421.94 147.18 421.94"/>
  <polygon class="cls-1" points="173.35 402.92 163.35 372.15 137.18 353.12 111 372.15 94.82 421.94 147.18 421.94 173.35 402.92"/>
  <polyline class="cls-3" points="173.35 502.52 147.18 483.5 94.82 483.5 111 533.29 137.18 552.32 163.35 533.29"/>
  <polygon class="cls-1" points="173.35 502.52 147.18 483.5 94.82 483.5 111 533.29 137.18 552.32 163.35 533.29 173.35 502.52"/>
  <polyline class="cls-3" points="173.35 725.22 163.35 694.44 137.18 675.42 111 694.44 94.82 744.24 147.18 744.24"/>
  <polygon class="cls-1" points="173.35 725.22 163.35 694.44 137.18 675.42 111 694.44 94.82 744.24 147.18 744.24 173.35 725.22"/>
  <polyline class="cls-2" points="593.14 130.42 603.14 99.64 635.5 99.64 609.32 80.62 619.32 49.85 576.96 80.62"/>
  <polygon class="cls-1" points="593.14 130.42 603.14 99.64 635.5 99.64 609.32 80.62 619.32 49.85 576.96 80.62 593.14 130.42"/>
  <polyline class="cls-2" points="528.42 130.42 544.6 80.62 502.24 49.85 512.24 80.62 486.06 99.64 518.42 99.64"/>
  <polygon class="cls-1" points="528.42 130.42 544.6 80.62 502.24 49.85 512.24 80.62 486.06 99.64 518.42 99.64 528.42 130.42"/>
  <polygon class="cls-2" points="443.7 130.42 486.06 99.64 433.7 99.64 427.52 118.66 443.7 130.42"/>
  <polygon class="cls-1" points="443.7 130.42 486.06 99.64 433.7 99.64 427.52 118.66 443.7 130.42"/>
  <polygon class="cls-2" points="338.98 130.42 355.16 118.66 348.98 99.64 296.62 99.64 338.98 130.42"/>
  <polygon class="cls-1" points="338.98 130.42 355.16 118.66 348.98 99.64 296.62 99.64 338.98 130.42"/>
  <polyline class="cls-2" points="254.26 130.42 264.26 99.64 296.62 99.64 270.44 80.62 280.44 49.85 238.08 80.62"/>
  <polygon class="cls-1" points="254.26 130.42 264.26 99.64 296.62 99.64 270.44 80.62 280.44 49.85 238.08 80.62 254.26 130.42"/>
  <polyline class="cls-2" points="189.54 130.42 205.72 80.62 163.35 49.85 173.35 80.62 147.18 99.64 179.54 99.64"/>
  <polygon class="cls-1" points="189.54 130.42 205.72 80.62 163.35 49.85 173.35 80.62 147.18 99.64 179.54 99.64 189.54 130.42"/>
  <polyline class="cls-2" points="189.54 775.02 179.54 805.8 147.18 805.8 173.35 824.82 163.35 855.59 205.72 824.82"/>
  <polygon class="cls-1" points="189.54 775.02 179.54 805.8 147.18 805.8 173.35 824.82 163.35 855.59 205.72 824.82 189.54 775.02"/>
  <polyline class="cls-2" points="254.26 775.02 238.08 824.82 280.44 855.59 270.44 824.82 296.62 805.8 264.26 805.8"/>
  <polygon class="cls-1" points="254.26 775.02 238.08 824.82 280.44 855.59 270.44 824.82 296.62 805.8 264.26 805.8 254.26 775.02"/>
  <polygon class="cls-2" points="338.98 775.02 296.62 805.8 348.98 805.8 355.16 786.77 338.98 775.02"/>
  <polygon class="cls-1" points="338.98 775.02 296.62 805.8 348.98 805.8 355.16 786.77 338.98 775.02"/>
  <polygon class="cls-2" points="443.7 775.02 427.52 786.77 433.7 805.8 486.06 805.8 443.7 775.02"/>
  <polygon class="cls-1" points="443.7 775.02 427.52 786.77 433.7 805.8 486.06 805.8 443.7 775.02"/>
  <polyline class="cls-2" points="528.42 775.02 518.42 805.8 486.06 805.8 512.24 824.82 502.24 855.59 544.6 824.82"/>
  <polygon class="cls-1" points="528.42 775.02 518.42 805.8 486.06 805.8 512.24 824.82 502.24 855.59 544.6 824.82 528.42 775.02"/>
  <polyline class="cls-2" points="593.14 775.02 576.96 824.82 619.32 855.59 609.32 824.82 635.5 805.8 603.14 805.8"/>
  <polygon class="cls-1" points="593.14 775.02 576.96 824.82 619.32 855.59 609.32 824.82 635.5 805.8 603.14 805.8 593.14 775.02"/>
  <polygon class="cls-2" points="635.5 744.24 677.87 775.02 694.05 763.26 687.87 744.24 635.5 744.24"/>
  <polygon class="cls-1" points="635.5 744.24 677.87 775.02 694.05 763.26 687.87 744.24 635.5 744.24"/>
  <polygon class="cls-2" points="635.5 483.5 687.87 483.5 694.05 464.48 677.87 452.72 635.5 483.5"/>
  <polygon class="cls-1" points="635.5 483.5 687.87 483.5 694.05 464.48 677.87 452.72 635.5 483.5"/>
  <polygon class="cls-2" points="635.5 421.94 677.87 452.72 694.05 440.96 687.87 421.94 635.5 421.94"/>
  <polygon class="cls-1" points="635.5 421.94 677.87 452.72 694.05 440.96 687.87 421.94 635.5 421.94"/>
  <polygon class="cls-2" points="635.5 161.2 687.87 161.2 694.05 142.18 677.87 130.42 635.5 161.2"/>
  <polygon class="cls-1" points="635.5 161.2 687.87 161.2 694.05 142.18 677.87 130.42 635.5 161.2"/>
  <polygon class="cls-2" points="147.18 161.2 104.82 130.42 88.64 142.18 94.82 161.2 147.18 161.2"/>
  <polygon class="cls-1" points="147.18 161.2 104.82 130.42 88.64 142.18 94.82 161.2 147.18 161.2"/>
  <polygon class="cls-2" points="147.18 421.94 94.82 421.94 88.64 440.96 104.82 452.72 147.18 421.94"/>
  <polygon class="cls-1" points="147.18 421.94 94.82 421.94 88.64 440.96 104.82 452.72 147.18 421.94"/>
  <polygon class="cls-2" points="147.18 483.5 104.82 452.72 88.64 464.48 94.82 483.5 147.18 483.5"/>
  <polygon class="cls-1" points="147.18 483.5 104.82 452.72 88.64 464.48 94.82 483.5 147.18 483.5"/>
  <polygon class="cls-2" points="147.18 744.24 94.82 744.24 88.64 763.26 104.82 775.02 147.18 744.24"/>
  <polygon class="cls-1" points="147.18 744.24 94.82 744.24 88.64 763.26 104.82 775.02 147.18 744.24"/>
  <polyline class="cls-3" points="645.5 613.87 655.5 644.65 687.87 644.65 730.23 613.87 687.87 583.09 655.5 583.09"/>
  <polygon class="cls-1" points="645.5 613.87 655.5 644.65 687.87 644.65 730.23 613.87 687.87 583.09 655.5 583.09 645.5 613.87"/>
  <polyline class="cls-3" points="645.5 291.57 655.5 322.35 687.87 322.35 730.23 291.57 687.87 260.79 655.5 260.79"/>
  <polygon class="cls-1" points="645.5 291.57 655.5 322.35 687.87 322.35 730.23 291.57 687.87 260.79 655.5 260.79 645.5 291.57"/>
  <polyline class="cls-3" points="635.5 99.64 687.87 99.64 671.68 49.85 645.5 30.82 619.32 49.85 609.32 80.62"/>
  <polygon class="cls-1" points="635.5 99.64 687.87 99.64 671.68 49.85 645.5 30.82 619.32 49.85 609.32 80.62 635.5 99.64"/>
  <polygon class="cls-2" points="635.5 99.64 677.87 130.42 694.05 118.66 687.87 99.64 635.5 99.64"/>
  <polygon class="cls-1" points="635.5 99.64 677.87 130.42 694.05 118.66 687.87 99.64 635.5 99.64"/>
  <polyline class="cls-3" points="486.06 99.64 512.24 80.62 502.24 49.85 476.06 30.82 449.88 49.85 433.7 99.64"/>
  <polygon class="cls-1" points="486.06 99.64 512.24 80.62 502.24 49.85 476.06 30.82 449.88 49.85 433.7 99.64 486.06 99.64"/>
  <polygon class="cls-2" points="433.7 99.64 449.88 49.85 407.52 80.62 413.7 99.64 433.7 99.64"/>
  <polygon class="cls-1" points="433.7 99.64 449.88 49.85 407.52 80.62 413.7 99.64 433.7 99.64"/>
  <polygon class="cls-2" points="368.98 99.64 375.16 80.62 332.8 49.85 348.98 99.64 368.98 99.64"/>
  <polygon class="cls-1" points="368.98 99.64 375.16 80.62 332.8 49.85 348.98 99.64 368.98 99.64"/>
  <polyline class="cls-3" points="348.98 99.64 332.8 49.85 306.62 30.82 280.44 49.85 270.44 80.62 296.62 99.64"/>
  <polygon class="cls-1" points="348.98 99.64 332.8 49.85 306.62 30.82 280.44 49.85 270.44 80.62 296.62 99.64 348.98 99.64"/>
  <polygon class="cls-2" points="147.18 99.64 94.82 99.64 88.64 118.66 104.82 130.42 147.18 99.64"/>
  <polygon class="cls-1" points="147.18 99.64 94.82 99.64 88.64 118.66 104.82 130.42 147.18 99.64"/>
  <polyline class="cls-3" points="147.18 99.64 173.35 80.62 163.35 49.85 137.18 30.82 111 49.85 94.82 99.64"/>
  <polygon class="cls-1" points="147.18 99.64 173.35 80.62 163.35 49.85 137.18 30.82 111 49.85 94.82 99.64 147.18 99.64"/>
  <polyline class="cls-3" points="137.18 291.57 127.18 260.79 94.82 260.79 52.45 291.57 94.82 322.35 127.18 322.35"/>
  <polygon class="cls-1" points="137.18 291.57 127.18 260.79 94.82 260.79 52.45 291.57 94.82 322.35 127.18 322.35 137.18 291.57"/>
  <polyline class="cls-3" points="137.18 613.87 127.18 583.09 94.82 583.09 52.45 613.87 94.82 644.65 127.18 644.65"/>
  <polygon class="cls-1" points="137.18 613.87 127.18 583.09 94.82 583.09 52.45 613.87 94.82 644.65 127.18 644.65 137.18 613.87"/>
  <polyline class="cls-3" points="147.18 805.8 94.82 805.8 111 855.59 137.18 874.61 163.35 855.59 173.35 824.82"/>
  <polygon class="cls-1" points="147.18 805.8 94.82 805.8 111 855.59 137.18 874.61 163.35 855.59 173.35 824.82 147.18 805.8"/>
  <polygon class="cls-2" points="147.18 805.8 104.82 775.02 88.64 786.77 94.82 805.8 147.18 805.8"/>
  <polygon class="cls-1" points="147.18 805.8 104.82 775.02 88.64 786.77 94.82 805.8 147.18 805.8"/>
  <polyline class="cls-3" points="296.62 805.8 270.44 824.82 280.44 855.59 306.62 874.61 332.8 855.59 348.98 805.8"/>
  <polygon class="cls-1" points="296.62 805.8 270.44 824.82 280.44 855.59 306.62 874.61 332.8 855.59 348.98 805.8 296.62 805.8"/>
  <polygon class="cls-2" points="348.98 805.8 332.8 855.59 375.16 824.82 368.98 805.8 348.98 805.8"/>
  <polygon class="cls-1" points="348.98 805.8 332.8 855.59 375.16 824.82 368.98 805.8 348.98 805.8"/>
  <polygon class="cls-2" points="413.7 805.8 407.52 824.82 449.88 855.59 433.7 805.8 413.7 805.8"/>
  <polygon class="cls-1" points="413.7 805.8 407.52 824.82 449.88 855.59 433.7 805.8 413.7 805.8"/>
  <polyline class="cls-3" points="433.7 805.8 449.88 855.59 476.06 874.61 502.24 855.59 512.24 824.82 486.06 805.8"/>
  <polygon class="cls-1" points="433.7 805.8 449.88 855.59 476.06 874.61 502.24 855.59 512.24 824.82 486.06 805.8 433.7 805.8"/>
  <polygon class="cls-2" points="635.5 805.8 687.87 805.8 694.05 786.77 677.87 775.02 635.5 805.8"/>
  <polygon class="cls-1" points="635.5 805.8 687.87 805.8 694.05 786.77 677.87 775.02 635.5 805.8"/>
  <polyline class="cls-3" points="635.5 805.8 609.32 824.82 619.32 855.59 645.5 874.61 671.68 855.59 687.87 805.8"/>
  <polygon class="cls-1" points="635.5 805.8 609.32 824.82 619.32 855.59 645.5 874.61 671.68 855.59 687.87 805.8 635.5 805.8"/>
  <polygon class="cls-2" points="560.78 92.38 576.96 80.62 560.78 30.82 544.6 80.62 560.78 92.38"/>
  <polygon class="cls-1" points="560.78 92.38 576.96 80.62 560.78 30.82 544.6 80.62 560.78 92.38"/>
  <polygon class="cls-2" points="391.34 92.38 407.52 80.62 391.34 30.82 375.16 80.62 391.34 92.38"/>
  <polygon class="cls-1" points="391.34 92.38 407.52 80.62 391.34 30.82 375.16 80.62 391.34 92.38"/>
  <polygon class="cls-2" points="221.9 92.38 238.08 80.62 221.9 30.82 205.72 80.62 221.9 92.38"/>
  <polygon class="cls-1" points="221.9 92.38 238.08 80.62 221.9 30.82 205.72 80.62 221.9 92.38"/>
  <polygon class="cls-2" points="221.9 813.06 205.72 824.82 221.9 874.61 238.08 824.82 221.9 813.06"/>
  <polygon class="cls-1" points="221.9 813.06 205.72 824.82 221.9 874.61 238.08 824.82 221.9 813.06"/>
  <polygon class="cls-2" points="391.34 813.06 375.16 824.82 391.34 874.61 407.52 824.82 391.34 813.06"/>
  <polygon class="cls-1" points="391.34 813.06 375.16 824.82 391.34 874.61 407.52 824.82 391.34 813.06"/>
  <polygon class="cls-2" points="560.78 813.06 544.6 824.82 560.78 874.61 576.96 824.82 560.78 813.06"/>
  <polygon class="cls-1" points="560.78 813.06 544.6 824.82 560.78 874.61 576.96 824.82 560.78 813.06"/>
  <polyline class="cls-3" points="661.68 663.67 671.68 694.44 714.05 725.22 730.23 675.42 720.23 644.65 687.87 644.65"/>
  <polygon class="cls-1" points="661.68 663.67 671.68 694.44 714.05 725.22 730.23 675.42 720.23 644.65 687.87 644.65 661.68 663.67"/>
  <polyline class="cls-3" points="661.68 564.07 687.87 583.09 720.23 583.09 730.23 552.32 714.05 502.52 671.68 533.29"/>
  <polygon class="cls-1" points="661.68 564.07 687.87 583.09 720.23 583.09 730.23 552.32 714.05 502.52 671.68 533.29 661.68 564.07"/>
  <polyline class="cls-3" points="661.68 341.37 671.68 372.15 714.05 402.92 730.23 353.12 720.23 322.35 687.87 322.35"/>
  <polygon class="cls-1" points="661.68 341.37 671.68 372.15 714.05 402.92 730.23 353.12 720.23 322.35 687.87 322.35 661.68 341.37"/>
  <polyline class="cls-3" points="661.68 241.77 687.87 260.79 720.23 260.79 730.23 230.02 714.05 180.22 671.68 211"/>
  <polygon class="cls-1" points="661.68 241.77 687.87 260.79 720.23 260.79 730.23 230.02 714.05 180.22 671.68 211 661.68 241.77"/>
  <polyline class="cls-3" points="576.96 80.62 619.32 49.85 629.32 19.07 603.14 .05 570.78 .05 560.78 30.82"/>
  <polygon class="cls-1" points="576.96 80.62 619.32 49.85 629.32 19.07 603.14 .05 570.78 .05 560.78 30.82 576.96 80.62"/>
  <polyline class="cls-3" points="544.6 80.62 560.78 30.82 550.78 .05 518.42 .05 492.24 19.07 502.24 49.85"/>
  <polygon class="cls-1" points="544.6 80.62 560.78 30.82 550.78 .05 518.42 .05 492.24 19.07 502.24 49.85 544.6 80.62"/>
  <polyline class="cls-3" points="407.52 80.62 449.88 49.85 459.88 19.07 433.7 .05 401.34 .05 391.34 30.82"/>
  <polygon class="cls-1" points="407.52 80.62 449.88 49.85 459.88 19.07 433.7 .05 401.34 .05 391.34 30.82 407.52 80.62"/>
  <polyline class="cls-3" points="375.16 80.62 391.34 30.82 381.34 .05 348.98 .05 322.8 19.07 332.8 49.85"/>
  <polygon class="cls-1" points="375.16 80.62 391.34 30.82 381.34 .05 348.98 .05 322.8 19.07 332.8 49.85 375.16 80.62"/>
  <polyline class="cls-3" points="238.08 80.62 280.44 49.85 290.44 19.07 264.26 .05 231.9 .05 221.9 30.82"/>
  <polygon class="cls-1" points="238.08 80.62 280.44 49.85 290.44 19.07 264.26 .05 231.9 .05 221.9 30.82 238.08 80.62"/>
  <polyline class="cls-3" points="205.72 80.62 221.9 30.82 211.9 .05 179.54 .05 153.35 19.07 163.35 49.85"/>
  <polygon class="cls-1" points="205.72 80.62 221.9 30.82 211.9 .05 179.54 .05 153.35 19.07 163.35 49.85 205.72 80.62"/>
  <polyline class="cls-3" points="205.72 824.82 163.35 855.59 153.35 886.37 179.54 905.39 211.9 905.39 221.9 874.61"/>
  <polygon class="cls-1" points="205.72 824.82 163.35 855.59 153.35 886.37 179.54 905.39 211.9 905.39 221.9 874.61 205.72 824.82"/>
  <polyline class="cls-3" points="238.08 824.82 221.9 874.61 231.9 905.39 264.26 905.39 290.44 886.37 280.44 855.59"/>
  <polygon class="cls-1" points="238.08 824.82 221.9 874.61 231.9 905.39 264.26 905.39 290.44 886.37 280.44 855.59 238.08 824.82"/>
  <polyline class="cls-3" points="375.16 824.82 332.8 855.59 322.8 886.37 348.98 905.39 381.34 905.39 391.34 874.61"/>
  <polygon class="cls-1" points="375.16 824.82 332.8 855.59 322.8 886.37 348.98 905.39 381.34 905.39 391.34 874.61 375.16 824.82"/>
  <polyline class="cls-3" points="407.52 824.82 391.34 874.61 401.34 905.39 433.7 905.39 459.88 886.37 449.88 855.59"/>
  <polygon class="cls-1" points="407.52 824.82 391.34 874.61 401.34 905.39 433.7 905.39 459.88 886.37 449.88 855.59 407.52 824.82"/>
  <polyline class="cls-3" points="544.6 824.82 502.24 855.59 492.24 886.37 518.42 905.39 550.78 905.39 560.78 874.61"/>
  <polygon class="cls-1" points="544.6 824.82 502.24 855.59 492.24 886.37 518.42 905.39 550.78 905.39 560.78 874.61 544.6 824.82"/>
  <polyline class="cls-3" points="576.96 824.82 560.78 874.61 570.78 905.39 603.14 905.39 629.32 886.37 619.32 855.59"/>
  <polygon class="cls-1" points="576.96 824.82 560.78 874.61 570.78 905.39 603.14 905.39 629.32 886.37 619.32 855.59 576.96 824.82"/>
  <polyline class="cls-3" points="121 241.77 111 211 68.64 180.22 52.45 230.02 62.45 260.79 94.82 260.79"/>
  <polygon class="cls-1" points="121 241.77 111 211 68.64 180.22 52.45 230.02 62.45 260.79 94.82 260.79 121 241.77"/>
  <polyline class="cls-3" points="121 341.37 94.82 322.35 62.45 322.35 52.45 353.12 68.64 402.92 111 372.15"/>
  <polygon class="cls-1" points="121 341.37 94.82 322.35 62.45 322.35 52.45 353.12 68.64 402.92 111 372.15 121 341.37"/>
  <polyline class="cls-3" points="121 564.07 111 533.29 68.64 502.52 52.45 552.32 62.45 583.09 94.82 583.09"/>
  <polygon class="cls-1" points="121 564.07 111 533.29 68.64 502.52 52.45 552.32 62.45 583.09 94.82 583.09 121 564.07"/>
  <polyline class="cls-3" points="121 663.67 94.82 644.65 62.45 644.65 52.45 675.42 68.64 725.22 111 694.44"/>
  <polygon class="cls-1" points="121 663.67 94.82 644.65 62.45 644.65 52.45 675.42 68.64 725.22 111 694.44 121 663.67"/>
  <polygon class="cls-2" points="671.68 694.44 687.87 744.24 707.87 744.24 714.05 725.22 671.68 694.44"/>
  <polygon class="cls-1" points="671.68 694.44 687.87 744.24 707.87 744.24 714.05 725.22 671.68 694.44"/>
  <polygon class="cls-2" points="671.68 533.29 714.05 502.52 707.87 483.5 687.87 483.5 671.68 533.29"/>
  <polygon class="cls-1" points="671.68 533.29 714.05 502.52 707.87 483.5 687.87 483.5 671.68 533.29"/>
  <polygon class="cls-2" points="671.68 372.15 687.87 421.94 707.87 421.94 714.05 402.92 671.68 372.15"/>
  <polygon class="cls-1" points="671.68 372.15 687.87 421.94 707.87 421.94 714.05 402.92 671.68 372.15"/>
  <polygon class="cls-2" points="671.68 211 714.05 180.22 707.87 161.2 687.87 161.2 671.68 211"/>
  <polygon class="cls-1" points="671.68 211 714.05 180.22 707.87 161.2 687.87 161.2 671.68 211"/>
  <polygon class="cls-2" points="111 211 94.82 161.2 74.82 161.2 68.64 180.22 111 211"/>
  <polygon class="cls-1" points="111 211 94.82 161.2 74.82 161.2 68.64 180.22 111 211"/>
  <polygon class="cls-2" points="111 372.15 68.64 402.92 74.82 421.94 94.82 421.94 111 372.15"/>
  <polygon class="cls-1" points="111 372.15 68.64 402.92 74.82 421.94 94.82 421.94 111 372.15"/>
  <polygon class="cls-2" points="111 533.29 94.82 483.5 74.82 483.5 68.64 502.52 111 533.29"/>
  <polygon class="cls-1" points="111 533.29 94.82 483.5 74.82 483.5 68.64 502.52 111 533.29"/>
  <polygon class="cls-2" points="111 694.44 68.64 725.22 74.82 744.24 94.82 744.24 111 694.44"/>
  <polygon class="cls-1" points="111 694.44 68.64 725.22 74.82 744.24 94.82 744.24 111 694.44"/>
  <polyline class="cls-3" points="677.87 775.02 694.05 786.77 687.87 805.8 707.87 805.8 714.05 824.82 730.23 813.06 746.41 824.82 752.59 805.8 772.59 805.8 766.41 786.77 782.59 775.02 766.41 763.26 772.59 744.24 752.59 744.24 746.41 725.22 730.23 736.98 714.05 725.22 707.87 744.24 687.87 744.24 694.05 763.26"/>
  <polygon class="cls-1" points="677.87 775.02 694.05 786.77 687.87 805.8 707.87 805.8 714.05 824.82 730.23 813.06 746.41 824.82 752.59 805.8 772.59 805.8 766.41 786.77 782.59 775.02 766.41 763.26 772.59 744.24 752.59 744.24 746.41 725.22 730.23 736.98 714.05 725.22 707.87 744.24 687.87 744.24 694.05 763.26 677.87 775.02"/>
  <polyline class="cls-3" points="677.87 452.72 694.05 464.48 687.87 483.5 707.87 483.5 714.05 502.52 730.23 490.76 746.41 502.52 752.59 483.5 772.59 483.5 766.41 464.48 782.59 452.72 766.41 440.96 772.59 421.94 752.59 421.94 746.41 402.92 730.23 414.68 714.05 402.92 707.87 421.94 687.87 421.94 694.05 440.96"/>
  <polygon class="cls-1" points="677.87 452.72 694.05 464.48 687.87 483.5 707.87 483.5 714.05 502.52 730.23 490.76 746.41 502.52 752.59 483.5 772.59 483.5 766.41 464.48 782.59 452.72 766.41 440.96 772.59 421.94 752.59 421.94 746.41 402.92 730.23 414.68 714.05 402.92 707.87 421.94 687.87 421.94 694.05 440.96 677.87 452.72"/>
  <polyline class="cls-3" points="677.87 130.42 694.05 142.18 687.87 161.2 707.87 161.2 714.05 180.22 730.23 168.46 746.41 180.22 752.59 161.2 772.59 161.2 766.41 142.18 782.59 130.42 766.41 118.66 772.59 99.64 752.59 99.64 746.41 80.62 730.23 92.38 714.05 80.62 707.87 99.64 687.87 99.64 694.05 118.66"/>
  <polygon class="cls-1" points="677.87 130.42 694.05 142.18 687.87 161.2 707.87 161.2 714.05 180.22 730.23 168.46 746.41 180.22 752.59 161.2 772.59 161.2 766.41 142.18 782.59 130.42 766.41 118.66 772.59 99.64 752.59 99.64 746.41 80.62 730.23 92.38 714.05 80.62 707.87 99.64 687.87 99.64 694.05 118.66 677.87 130.42"/>
  <polyline class="cls-3" points="104.82 130.42 88.64 118.66 94.82 99.64 74.82 99.64 68.64 80.62 52.45 92.38 36.27 80.62 30.09 99.64 10.09 99.64 16.27 118.66 .09 130.42 16.27 142.18 10.09 161.2 30.09 161.2 36.27 180.22 52.45 168.46 68.64 180.22 74.82 161.2 94.82 161.2 88.64 142.18"/>
  <polygon class="cls-1" points="104.82 130.42 88.64 118.66 94.82 99.64 74.82 99.64 68.64 80.62 52.45 92.38 36.27 80.62 30.09 99.64 10.09 99.64 16.27 118.66 .09 130.42 16.27 142.18 10.09 161.2 30.09 161.2 36.27 180.22 52.45 168.46 68.64 180.22 74.82 161.2 94.82 161.2 88.64 142.18 104.82 130.42"/>
  <polyline class="cls-3" points="104.82 452.72 88.64 440.96 94.82 421.94 74.82 421.94 68.64 402.92 52.45 414.68 36.27 402.92 30.09 421.94 10.09 421.94 16.27 440.96 .09 452.72 16.27 464.48 10.09 483.5 30.09 483.5 36.27 502.52 52.45 490.76 68.64 502.52 74.82 483.5 94.82 483.5 88.64 464.48"/>
  <polygon class="cls-1" points="104.82 452.72 88.64 440.96 94.82 421.94 74.82 421.94 68.64 402.92 52.45 414.68 36.27 402.92 30.09 421.94 10.09 421.94 16.27 440.96 .09 452.72 16.27 464.48 10.09 483.5 30.09 483.5 36.27 502.52 52.45 490.76 68.64 502.52 74.82 483.5 94.82 483.5 88.64 464.48 104.82 452.72"/>
  <polyline class="cls-3" points="104.82 775.02 88.64 763.26 94.82 744.24 74.82 744.24 68.64 725.22 52.45 736.98 36.27 725.22 30.09 744.24 10.09 744.24 16.27 763.26 .09 775.02 16.27 786.77 10.09 805.8 30.09 805.8 36.27 824.82 52.45 813.06 68.64 824.82 74.82 805.8 94.82 805.8 88.64 786.77"/>
  <polygon class="cls-1" points="104.82 775.02 88.64 763.26 94.82 744.24 74.82 744.24 68.64 725.22 52.45 736.98 36.27 725.22 30.09 744.24 10.09 744.24 16.27 763.26 .09 775.02 16.27 786.77 10.09 805.8 30.09 805.8 36.27 824.82 52.45 813.06 68.64 824.82 74.82 805.8 94.82 805.8 88.64 786.77 104.82 775.02"/>
  <polyline class="cls-3" points="671.68 49.85 714.05 80.62 730.23 30.82 720.23 .05 687.87 .05 661.68 19.07"/>
  <polygon class="cls-1" points="671.68 49.85 714.05 80.62 730.23 30.82 720.23 .05 687.87 .05 661.68 19.07 671.68 49.85"/>
  <polygon class="cls-2" points="671.68 49.85 687.87 99.64 707.87 99.64 714.05 80.62 671.68 49.85"/>
  <polygon class="cls-1" points="671.68 49.85 687.87 99.64 707.87 99.64 714.05 80.62 671.68 49.85"/>
  <polygon class="cls-2" points="111 49.85 68.64 80.62 74.82 99.64 94.82 99.64 111 49.85"/>
  <polygon class="cls-1" points="111 49.85 68.64 80.62 74.82 99.64 94.82 99.64 111 49.85"/>
  <polyline class="cls-3" points="111 49.85 121 19.07 94.82 .05 62.45 .05 52.45 30.82 68.64 80.62"/>
  <polygon class="cls-1" points="111 49.85 121 19.07 94.82 .05 62.45 .05 52.45 30.82 68.64 80.62 111 49.85"/>
  <polyline class="cls-2" points="111 855.59 121 886.37 94.82 905.39 127.18 905.39 137.18 936.17 147.18 905.39 179.54 905.39 153.35 886.37 163.35 855.59 137.18 874.61"/>
  <polygon class="cls-1" points="111 855.59 121 886.37 94.82 905.39 127.18 905.39 137.18 936.17 147.18 905.39 179.54 905.39 153.35 886.37 163.35 855.59 137.18 874.61 111 855.59"/>
  <polyline class="cls-3" points="111 855.59 68.64 824.82 52.45 874.61 62.45 905.39 94.82 905.39 121 886.37"/>
  <polygon class="cls-1" points="111 855.59 68.64 824.82 52.45 874.61 62.45 905.39 94.82 905.39 121 886.37 111 855.59"/>
  <polygon class="cls-2" points="111 855.59 94.82 805.8 74.82 805.8 68.64 824.82 111 855.59"/>
  <polygon class="cls-1" points="111 855.59 94.82 805.8 74.82 805.8 68.64 824.82 111 855.59"/>
  <polyline class="cls-2" points="280.44 855.59 290.44 886.37 264.26 905.39 296.62 905.39 306.62 936.17 316.62 905.39 348.98 905.39 322.8 886.37 332.8 855.59 306.62 874.61"/>
  <polygon class="cls-1" points="280.44 855.59 290.44 886.37 264.26 905.39 296.62 905.39 306.62 936.17 316.62 905.39 348.98 905.39 322.8 886.37 332.8 855.59 306.62 874.61 280.44 855.59"/>
  <polyline class="cls-2" points="449.88 855.59 459.88 886.37 433.7 905.39 466.06 905.39 476.06 936.17 486.06 905.39 518.42 905.39 492.24 886.37 502.24 855.59 476.06 874.61"/>
  <polygon class="cls-1" points="449.88 855.59 459.88 886.37 433.7 905.39 466.06 905.39 476.06 936.17 486.06 905.39 518.42 905.39 492.24 886.37 502.24 855.59 476.06 874.61 449.88 855.59"/>
  <polyline class="cls-2" points="619.32 855.59 629.32 886.37 603.14 905.39 635.5 905.39 645.5 936.17 655.5 905.39 687.87 905.39 661.68 886.37 671.68 855.59 645.5 874.61"/>
  <polygon class="cls-1" points="619.32 855.59 629.32 886.37 603.14 905.39 635.5 905.39 645.5 936.17 655.5 905.39 687.87 905.39 661.68 886.37 671.68 855.59 645.5 874.61 619.32 855.59"/>
  <polygon class="cls-2" points="671.68 855.59 714.05 824.82 707.87 805.8 687.87 805.8 671.68 855.59"/>
  <polygon class="cls-1" points="671.68 855.59 714.05 824.82 707.87 805.8 687.87 805.8 671.68 855.59"/>
  <polyline class="cls-3" points="671.68 855.59 661.68 886.37 687.87 905.39 720.23 905.39 730.23 874.61 714.05 824.82"/>
  <polygon class="cls-1" points="671.68 855.59 661.68 886.37 687.87 905.39 720.23 905.39 730.23 874.61 714.05 824.82 671.68 855.59"/>
  <polyline class="cls-2" points="687.87 644.65 720.23 644.65 730.23 675.42 740.23 644.65 772.59 644.65 730.23 613.87"/>
  <polygon class="cls-1" points="687.87 644.65 720.23 644.65 730.23 675.42 740.23 644.65 772.59 644.65 730.23 613.87 687.87 644.65"/>
  <polyline class="cls-2" points="687.87 583.09 730.23 613.87 772.59 583.09 740.23 583.09 730.23 552.32 720.23 583.09"/>
  <polygon class="cls-1" points="687.87 583.09 730.23 613.87 772.59 583.09 740.23 583.09 730.23 552.32 720.23 583.09 687.87 583.09"/>
  <polyline class="cls-2" points="687.87 322.35 720.23 322.35 730.23 353.12 740.23 322.35 772.59 322.35 730.23 291.57"/>
  <polygon class="cls-1" points="687.87 322.35 720.23 322.35 730.23 353.12 740.23 322.35 772.59 322.35 730.23 291.57 687.87 322.35"/>
  <polyline class="cls-2" points="687.87 260.79 730.23 291.57 772.59 260.79 740.23 260.79 730.23 230.02 720.23 260.79"/>
  <polygon class="cls-1" points="687.87 260.79 730.23 291.57 772.59 260.79 740.23 260.79 730.23 230.02 720.23 260.79 687.87 260.79"/>
</svg>