<?xml version="1.0" encoding="UTF-8"?>
<svg id="Layer_1" data-name="Layer 1" xmlns="http://www.w3.org/2000/svg" viewBox="0 0 785.57 928.24">
  <defs>
    <style>
      .cls-1 {
        fill: none;
        stroke: #000;
        stroke-miterlimit: 10;
        stroke-width: .1px;
      }

      .cls-2 {
        fill: #5c6600;
      }

      .cls-2, .cls-3, .cls-4, .cls-5 {
        stroke-width: 0px;
      }

      .cls-3 {
        fill: #805900;
      }

      .cls-4 {
        fill: #fff;
      }

      .cls-5 {
        fill: #ffde66;
      }
    </style>
  </defs>
  <polygon class="cls-2" points="340.71 443.9 364.48 451.62 364.48 411.17 326.01 423.67 340.71 443.9"/>
  <polygon class="cls-1" points="340.71 443.9 364.48 451.62 364.48 411.17 326.01 423.67 340.71 443.9"/>
  <polyline class="cls-5" points="364.48 411.17 364.48 370.72 326.01 358.22 302.24 390.94 326.01 423.67"/>
  <polygon class="cls-1" points="364.48 411.17 364.48 370.72 326.01 358.22 302.24 390.94 326.01 423.67 364.48 411.17"/>
  <polyline class="cls-3" points="364.48 411.17 402.95 398.67 426.73 431.4 450.51 398.67 412.04 386.17 412.04 345.72 373.57 358.22 349.79 325.49 326.01 358.22 364.48 370.72"/>
  <polygon class="cls-1" points="364.48 411.17 402.95 398.67 426.73 431.4 450.51 398.67 412.04 386.17 412.04 345.72 373.57 358.22 349.79 325.49 326.01 358.22 364.48 370.72 364.48 411.17"/>
  <polyline class="cls-5" points="364.48 411.17 364.48 451.62 402.95 464.12 426.73 431.4 402.95 398.67"/>
  <polygon class="cls-1" points="364.48 411.17 364.48 451.62 402.95 464.12 426.73 431.4 402.95 398.67 364.48 411.17"/>
  <polyline class="cls-3" points="364.48 451.62 364.48 492.07 326.01 504.57 349.79 537.3 373.57 504.57 412.04 517.07 412.04 476.62 450.51 464.12 426.73 431.4 402.95 464.12"/>
  <polygon class="cls-1" points="364.48 451.62 364.48 492.07 326.01 504.57 349.79 537.3 373.57 504.57 412.04 517.07 412.04 476.62 450.51 464.12 426.73 431.4 402.95 464.12 364.48 451.62"/>
  <polyline class="cls-4" points="364.48 451.62 340.71 443.9 326.01 423.67 287.54 436.17 287.54 476.62 311.32 484.35 326.01 504.57 364.48 492.07"/>
  <polygon class="cls-1" points="364.48 451.62 340.71 443.9 326.01 423.67 287.54 436.17 287.54 476.62 311.32 484.35 326.01 504.57 364.48 492.07 364.48 451.62"/>
  <polyline class="cls-3" points="326.01 423.67 302.24 390.94 326.01 358.22 287.54 345.72 287.54 386.17 249.07 398.67 272.85 431.4 249.07 464.12 287.54 476.62 287.54 436.17"/>
  <polygon class="cls-1" points="326.01 423.67 302.24 390.94 326.01 358.22 287.54 345.72 287.54 386.17 249.07 398.67 272.85 431.4 249.07 464.12 287.54 476.62 287.54 436.17 326.01 423.67"/>
  <polygon class="cls-2" points="311.32 484.35 287.54 476.62 287.54 517.07 326.01 504.57 311.32 484.35"/>
  <polygon class="cls-1" points="311.32 484.35 287.54 476.62 287.54 517.07 326.01 504.57 311.32 484.35"/>
  <polyline class="cls-5" points="373.57 358.22 412.04 345.72 412.04 305.27 373.57 292.77 349.79 325.49"/>
  <polygon class="cls-1" points="373.57 358.22 412.04 345.72 412.04 305.27 373.57 292.77 349.79 325.49 373.57 358.22"/>
  <polyline class="cls-5" points="326.01 358.22 349.79 325.49 326.01 292.77 287.54 305.27 287.54 345.72"/>
  <polygon class="cls-1" points="326.01 358.22 349.79 325.49 326.01 292.77 287.54 305.27 287.54 345.72 326.01 358.22"/>
  <polyline class="cls-5" points="326.01 504.57 287.54 517.07 287.54 557.52 326.01 570.02 349.79 537.3"/>
  <polygon class="cls-1" points="326.01 504.57 287.54 517.07 287.54 557.52 326.01 570.02 349.79 537.3 326.01 504.57"/>
  <polyline class="cls-5" points="373.57 504.57 349.79 537.3 373.57 570.02 412.04 557.52 412.04 517.07"/>
  <polygon class="cls-1" points="373.57 504.57 349.79 537.3 373.57 570.02 412.04 557.52 412.04 517.07 373.57 504.57"/>
  <polyline class="cls-5" points="412.04 476.62 412.04 517.07 450.51 529.57 474.28 496.85 450.51 464.12"/>
  <polygon class="cls-1" points="412.04 476.62 412.04 517.07 450.51 529.57 474.28 496.85 450.51 464.12 412.04 476.62"/>
  <polyline class="cls-5" points="412.04 386.17 450.51 398.67 474.28 365.94 450.51 333.22 412.04 345.72"/>
  <polygon class="cls-1" points="412.04 386.17 450.51 398.67 474.28 365.94 450.51 333.22 412.04 345.72 412.04 386.17"/>
  <polyline class="cls-3" points="412.04 345.72 450.51 333.22 474.28 365.94 498.06 333.22 536.53 345.72 536.53 305.27 498.06 317.77 474.28 285.04 450.51 317.77 412.04 305.27"/>
  <polygon class="cls-1" points="412.04 345.72 450.51 333.22 474.28 365.94 498.06 333.22 536.53 345.72 536.53 305.27 498.06 317.77 474.28 285.04 450.51 317.77 412.04 305.27 412.04 345.72"/>
  <polyline class="cls-3" points="412.04 517.07 412.04 557.52 450.51 545.02 474.28 577.75 498.06 545.02 536.53 557.52 536.53 517.07 498.06 529.57 474.28 496.85 450.51 529.57"/>
  <polygon class="cls-1" points="412.04 517.07 412.04 557.52 450.51 545.02 474.28 577.75 498.06 545.02 536.53 557.52 536.53 517.07 498.06 529.57 474.28 496.85 450.51 529.57 412.04 517.07"/>
  <polyline class="cls-5" points="287.54 345.72 249.07 333.22 225.29 365.94 249.07 398.67 287.54 386.17"/>
  <polygon class="cls-1" points="287.54 345.72 249.07 333.22 225.29 365.94 249.07 398.67 287.54 386.17 287.54 345.72"/>
  <polyline class="cls-3" points="287.54 345.72 287.54 305.27 249.07 317.77 225.29 285.04 201.52 317.77 163.05 305.27 163.05 345.72 201.52 333.22 225.29 365.94 249.07 333.22"/>
  <polygon class="cls-1" points="287.54 345.72 287.54 305.27 249.07 317.77 225.29 285.04 201.52 317.77 163.05 305.27 163.05 345.72 201.52 333.22 225.29 365.94 249.07 333.22 287.54 345.72"/>
  <polyline class="cls-5" points="287.54 476.62 249.07 464.12 225.29 496.85 249.07 529.57 287.54 517.07"/>
  <polygon class="cls-1" points="287.54 476.62 249.07 464.12 225.29 496.85 249.07 529.57 287.54 517.07 287.54 476.62"/>
  <polyline class="cls-3" points="287.54 517.07 249.07 529.57 225.29 496.85 201.52 529.57 163.05 517.07 163.05 557.52 201.52 545.02 225.29 577.75 249.07 545.02 287.54 557.52"/>
  <polygon class="cls-1" points="287.54 517.07 249.07 529.57 225.29 496.85 201.52 529.57 163.05 517.07 163.05 557.52 201.52 545.02 225.29 577.75 249.07 545.02 287.54 557.52 287.54 517.07"/>
  <polyline class="cls-3" points="349.79 325.49 373.57 292.77 412.04 305.27 412.04 264.82 450.51 252.32 426.73 219.59 402.95 252.32 364.48 239.82 364.48 280.27 326.01 292.77"/>
  <polygon class="cls-1" points="349.79 325.49 373.57 292.77 412.04 305.27 412.04 264.82 450.51 252.32 426.73 219.59 402.95 252.32 364.48 239.82 364.48 280.27 326.01 292.77 349.79 325.49"/>
  <polyline class="cls-4" points="426.73 431.4 450.51 464.12 474.28 456.4 498.06 464.12 521.84 431.4 498.06 398.67 474.28 406.4 450.51 398.67"/>
  <polygon class="cls-1" points="426.73 431.4 450.51 464.12 474.28 456.4 498.06 464.12 521.84 431.4 498.06 398.67 474.28 406.4 450.51 398.67 426.73 431.4"/>
  <polyline class="cls-3" points="349.79 537.3 326.01 570.02 364.48 582.52 364.48 622.97 402.95 610.47 426.73 643.2 450.51 610.47 412.04 597.97 412.04 557.52 373.57 570.02"/>
  <polygon class="cls-1" points="349.79 537.3 326.01 570.02 364.48 582.52 364.48 622.97 402.95 610.47 426.73 643.2 450.51 610.47 412.04 597.97 412.04 557.52 373.57 570.02 349.79 537.3"/>
  <polyline class="cls-4" points="272.85 431.4 249.07 398.67 225.29 406.4 201.52 398.67 177.74 431.4 201.52 464.12 225.29 456.4 249.07 464.12"/>
  <polygon class="cls-1" points="272.85 431.4 249.07 398.67 225.29 406.4 201.52 398.67 177.74 431.4 201.52 464.12 225.29 456.4 249.07 464.12 272.85 431.4"/>
  <polyline class="cls-5" points="412.04 305.27 450.51 317.77 474.28 285.04 450.51 252.32 412.04 264.82"/>
  <polygon class="cls-1" points="412.04 305.27 450.51 317.77 474.28 285.04 450.51 252.32 412.04 264.82 412.04 305.27"/>
  <polyline class="cls-5" points="287.54 305.27 287.54 264.82 249.07 252.32 225.29 285.04 249.07 317.77"/>
  <polygon class="cls-1" points="287.54 305.27 287.54 264.82 249.07 252.32 225.29 285.04 249.07 317.77 287.54 305.27"/>
  <polyline class="cls-3" points="287.54 305.27 326.01 292.77 302.24 260.04 326.01 227.32 287.54 214.82 287.54 174.37 249.07 186.87 272.85 219.59 249.07 252.32 287.54 264.82"/>
  <polygon class="cls-1" points="287.54 305.27 326.01 292.77 302.24 260.04 326.01 227.32 287.54 214.82 287.54 174.37 249.07 186.87 272.85 219.59 249.07 252.32 287.54 264.82 287.54 305.27"/>
  <polygon class="cls-2" points="287.54 557.52 287.54 597.97 311.32 590.25 326.01 570.02 287.54 557.52"/>
  <polygon class="cls-1" points="287.54 557.52 287.54 597.97 311.32 590.25 326.01 570.02 287.54 557.52"/>
  <polyline class="cls-5" points="287.54 557.52 249.07 545.02 225.29 577.75 249.07 610.47 287.54 597.97"/>
  <polygon class="cls-1" points="287.54 557.52 249.07 545.02 225.29 577.75 249.07 610.47 287.54 597.97 287.54 557.52"/>
  <polyline class="cls-5" points="412.04 557.52 412.04 597.97 450.51 610.47 474.28 577.75 450.51 545.02"/>
  <polygon class="cls-1" points="412.04 557.52 412.04 597.97 450.51 610.47 474.28 577.75 450.51 545.02 412.04 557.52"/>
  <polyline class="cls-5" points="326.01 292.77 364.48 280.27 364.48 239.82 326.01 227.32 302.24 260.04"/>
  <polygon class="cls-1" points="326.01 292.77 364.48 280.27 364.48 239.82 326.01 227.32 302.24 260.04 326.01 292.77"/>
  <polygon class="cls-2" points="450.51 464.12 474.28 496.85 498.06 464.12 474.28 456.4 450.51 464.12"/>
  <polygon class="cls-1" points="450.51 464.12 474.28 496.85 498.06 464.12 474.28 456.4 450.51 464.12"/>
  <polygon class="cls-2" points="450.51 398.67 474.28 406.4 498.06 398.67 474.28 365.94 450.51 398.67"/>
  <polygon class="cls-1" points="450.51 398.67 474.28 406.4 498.06 398.67 474.28 365.94 450.51 398.67"/>
  <polyline class="cls-4" points="326.01 570.02 311.32 590.25 287.54 597.97 287.54 638.42 326.01 650.92 340.71 630.7 364.48 622.97 364.48 582.52"/>
  <polygon class="cls-1" points="326.01 570.02 311.32 590.25 287.54 597.97 287.54 638.42 326.01 650.92 340.71 630.7 364.48 622.97 364.48 582.52 326.01 570.02"/>
  <polygon class="cls-2" points="249.07 398.67 225.29 365.94 201.52 398.67 225.29 406.4 249.07 398.67"/>
  <polygon class="cls-1" points="249.07 398.67 225.29 365.94 201.52 398.67 225.29 406.4 249.07 398.67"/>
  <polygon class="cls-2" points="249.07 464.12 225.29 456.4 201.52 464.12 225.29 496.85 249.07 464.12"/>
  <polygon class="cls-1" points="249.07 464.12 225.29 456.4 201.52 464.12 225.29 496.85 249.07 464.12"/>
  <polyline class="cls-5" points="474.28 577.75 498.06 610.47 536.53 597.97 536.53 557.52 498.06 545.02"/>
  <polygon class="cls-1" points="474.28 577.75 498.06 610.47 536.53 597.97 536.53 557.52 498.06 545.02 474.28 577.75"/>
  <polygon class="cls-2" points="474.28 577.75 450.51 610.47 474.28 618.2 498.06 610.47 474.28 577.75"/>
  <polygon class="cls-1" points="474.28 577.75 450.51 610.47 474.28 618.2 498.06 610.47 474.28 577.75"/>
  <polyline class="cls-5" points="474.28 496.85 498.06 529.57 536.53 517.07 536.53 476.62 498.06 464.12"/>
  <polygon class="cls-1" points="474.28 496.85 498.06 529.57 536.53 517.07 536.53 476.62 498.06 464.12 474.28 496.85"/>
  <polyline class="cls-5" points="474.28 365.94 498.06 398.67 536.53 386.17 536.53 345.72 498.06 333.22"/>
  <polygon class="cls-1" points="474.28 365.94 498.06 398.67 536.53 386.17 536.53 345.72 498.06 333.22 474.28 365.94"/>
  <polygon class="cls-2" points="474.28 285.04 498.06 252.32 474.28 244.59 450.51 252.32 474.28 285.04"/>
  <polygon class="cls-1" points="474.28 285.04 498.06 252.32 474.28 244.59 450.51 252.32 474.28 285.04"/>
  <polyline class="cls-5" points="474.28 285.04 498.06 317.77 536.53 305.27 536.53 264.82 498.06 252.32"/>
  <polygon class="cls-1" points="474.28 285.04 498.06 317.77 536.53 305.27 536.53 264.82 498.06 252.32 474.28 285.04"/>
  <polyline class="cls-3" points="287.54 597.97 249.07 610.47 272.85 643.2 249.07 675.92 287.54 688.42 287.54 728.87 326.01 716.37 302.24 683.65 326.01 650.92 287.54 638.42"/>
  <polygon class="cls-1" points="287.54 597.97 249.07 610.47 272.85 643.2 249.07 675.92 287.54 688.42 287.54 728.87 326.01 716.37 302.24 683.65 326.01 650.92 287.54 638.42 287.54 597.97"/>
  <polygon class="cls-2" points="225.29 577.75 201.52 610.47 225.29 618.2 249.07 610.47 225.29 577.75"/>
  <polygon class="cls-1" points="225.29 577.75 201.52 610.47 225.29 618.2 249.07 610.47 225.29 577.75"/>
  <polyline class="cls-5" points="225.29 577.75 201.52 545.02 163.05 557.52 163.05 597.97 201.52 610.47"/>
  <polygon class="cls-1" points="225.29 577.75 201.52 545.02 163.05 557.52 163.05 597.97 201.52 610.47 225.29 577.75"/>
  <polyline class="cls-5" points="225.29 285.04 201.52 252.32 163.05 264.82 163.05 305.27 201.52 317.77"/>
  <polygon class="cls-1" points="225.29 285.04 201.52 252.32 163.05 264.82 163.05 305.27 201.52 317.77 225.29 285.04"/>
  <polygon class="cls-2" points="225.29 285.04 249.07 252.32 225.29 244.59 201.52 252.32 225.29 285.04"/>
  <polygon class="cls-1" points="225.29 285.04 249.07 252.32 225.29 244.59 201.52 252.32 225.29 285.04"/>
  <polyline class="cls-5" points="225.29 365.94 201.52 333.22 163.05 345.72 163.05 386.17 201.52 398.67"/>
  <polygon class="cls-1" points="225.29 365.94 201.52 333.22 163.05 345.72 163.05 386.17 201.52 398.67 225.29 365.94"/>
  <polyline class="cls-5" points="225.29 496.85 201.52 464.12 163.05 476.62 163.05 517.07 201.52 529.57"/>
  <polygon class="cls-1" points="225.29 496.85 201.52 464.12 163.05 476.62 163.05 517.07 201.52 529.57 225.29 496.85"/>
  <polyline class="cls-4" points="450.51 252.32 474.28 244.59 498.06 252.32 521.84 219.59 498.06 186.87 474.28 194.59 450.51 186.87 426.73 219.59"/>
  <polygon class="cls-1" points="450.51 252.32 474.28 244.59 498.06 252.32 521.84 219.59 498.06 186.87 474.28 194.59 450.51 186.87 426.73 219.59 450.51 252.32"/>
  <polyline class="cls-5" points="402.95 252.32 426.73 219.59 402.95 186.87 364.48 199.37 364.48 239.82"/>
  <polygon class="cls-1" points="402.95 252.32 426.73 219.59 402.95 186.87 364.48 199.37 364.48 239.82 402.95 252.32"/>
  <polyline class="cls-4" points="249.07 252.32 272.85 219.59 249.07 186.87 225.29 194.59 201.52 186.87 177.74 219.59 201.52 252.32 225.29 244.59"/>
  <polygon class="cls-1" points="249.07 252.32 272.85 219.59 249.07 186.87 225.29 194.59 201.52 186.87 177.74 219.59 201.52 252.32 225.29 244.59 249.07 252.32"/>
  <polyline class="cls-4" points="249.07 610.47 225.29 618.2 201.52 610.47 177.74 643.2 201.52 675.92 225.29 668.2 249.07 675.92 272.85 643.2"/>
  <polygon class="cls-1" points="249.07 610.47 225.29 618.2 201.52 610.47 177.74 643.2 201.52 675.92 225.29 668.2 249.07 675.92 272.85 643.2 249.07 610.47"/>
  <polyline class="cls-5" points="402.95 610.47 364.48 622.97 364.48 663.42 402.95 675.92 426.73 643.2"/>
  <polygon class="cls-1" points="402.95 610.47 364.48 622.97 364.48 663.42 402.95 675.92 426.73 643.2 402.95 610.47"/>
  <polyline class="cls-4" points="450.51 610.47 426.73 643.2 450.51 675.92 474.28 668.2 498.06 675.92 521.84 643.2 498.06 610.47 474.28 618.2"/>
  <polygon class="cls-1" points="450.51 610.47 426.73 643.2 450.51 675.92 474.28 668.2 498.06 675.92 521.84 643.2 498.06 610.47 474.28 618.2 450.51 610.47"/>
  <polygon class="cls-2" points="364.48 239.82 364.48 199.37 340.71 207.09 326.01 227.32 364.48 239.82"/>
  <polygon class="cls-1" points="364.48 239.82 364.48 199.37 340.71 207.09 326.01 227.32 364.48 239.82"/>
  <polygon class="cls-2" points="364.48 622.97 340.71 630.7 326.01 650.92 364.48 663.42 364.48 622.97"/>
  <polygon class="cls-1" points="364.48 622.97 340.71 630.7 326.01 650.92 364.48 663.42 364.48 622.97"/>
  <polyline class="cls-4" points="326.01 227.32 340.71 207.09 364.48 199.37 364.48 158.92 326.01 146.42 311.32 166.64 287.54 174.37 287.54 214.82"/>
  <polygon class="cls-1" points="326.01 227.32 340.71 207.09 364.48 199.37 364.48 158.92 326.01 146.42 311.32 166.64 287.54 174.37 287.54 214.82 326.01 227.32"/>
  <polyline class="cls-3" points="498.06 610.47 521.84 643.2 498.06 675.92 536.53 688.42 536.53 728.87 575 716.37 551.23 683.65 575 650.92 536.53 638.42 536.53 597.97"/>
  <polygon class="cls-1" points="498.06 610.47 521.84 643.2 498.06 675.92 536.53 688.42 536.53 728.87 575 716.37 551.23 683.65 575 650.92 536.53 638.42 536.53 597.97 498.06 610.47"/>
  <polyline class="cls-3" points="498.06 464.12 536.53 476.62 536.53 436.17 575 423.67 551.23 390.94 575 358.22 536.53 345.72 536.53 386.17 498.06 398.67 521.84 431.4"/>
  <polygon class="cls-1" points="498.06 464.12 536.53 476.62 536.53 436.17 575 423.67 551.23 390.94 575 358.22 536.53 345.72 536.53 386.17 498.06 398.67 521.84 431.4 498.06 464.12"/>
  <polyline class="cls-3" points="498.06 252.32 536.53 264.82 536.53 305.27 575 292.77 551.23 260.04 575 227.32 536.53 214.82 536.53 174.37 498.06 186.87 521.84 219.59"/>
  <polygon class="cls-1" points="498.06 252.32 536.53 264.82 536.53 305.27 575 292.77 551.23 260.04 575 227.32 536.53 214.82 536.53 174.37 498.06 186.87 521.84 219.59 498.06 252.32"/>
  <polyline class="cls-3" points="201.52 252.32 177.74 219.59 153.96 252.32 115.49 239.82 115.49 280.27 77.02 292.77 100.8 325.49 124.58 292.77 163.05 305.27 163.05 264.82"/>
  <polygon class="cls-1" points="201.52 252.32 177.74 219.59 153.96 252.32 115.49 239.82 115.49 280.27 77.02 292.77 100.8 325.49 124.58 292.77 163.05 305.27 163.05 264.82 201.52 252.32"/>
  <polyline class="cls-3" points="201.52 398.67 163.05 386.17 163.05 345.72 124.58 358.22 100.8 325.49 77.02 358.22 115.49 370.72 115.49 411.17 153.96 398.67 177.74 431.4"/>
  <polygon class="cls-1" points="201.52 398.67 163.05 386.17 163.05 345.72 124.58 358.22 100.8 325.49 77.02 358.22 115.49 370.72 115.49 411.17 153.96 398.67 177.74 431.4 201.52 398.67"/>
  <polyline class="cls-3" points="201.52 464.12 177.74 431.4 153.96 464.12 115.49 451.62 115.49 492.07 77.02 504.57 100.8 537.3 124.58 504.57 163.05 517.07 163.05 476.62"/>
  <polygon class="cls-1" points="201.52 464.12 177.74 431.4 153.96 464.12 115.49 451.62 115.49 492.07 77.02 504.57 100.8 537.3 124.58 504.57 163.05 517.07 163.05 476.62 201.52 464.12"/>
  <polyline class="cls-3" points="201.52 610.47 163.05 597.97 163.05 557.52 124.58 570.02 100.8 537.3 77.02 570.02 115.49 582.52 115.49 622.97 153.96 610.47 177.74 643.2"/>
  <polygon class="cls-1" points="201.52 610.47 163.05 597.97 163.05 557.52 124.58 570.02 100.8 537.3 77.02 570.02 115.49 582.52 115.49 622.97 153.96 610.47 177.74 643.2 201.52 610.47"/>
  <polyline class="cls-3" points="426.73 219.59 450.51 186.87 412.04 174.37 412.04 133.92 373.57 146.42 349.79 113.69 326.01 146.42 364.48 158.92 364.48 199.37 402.95 186.87"/>
  <polygon class="cls-1" points="426.73 219.59 450.51 186.87 412.04 174.37 412.04 133.92 373.57 146.42 349.79 113.69 326.01 146.42 364.48 158.92 364.48 199.37 402.95 186.87 426.73 219.59"/>
  <polyline class="cls-3" points="426.73 643.2 402.95 675.92 364.48 663.42 364.48 703.87 326.01 716.37 349.79 749.1 373.57 716.37 412.04 728.87 412.04 688.42 450.51 675.92"/>
  <polygon class="cls-1" points="426.73 643.2 402.95 675.92 364.48 663.42 364.48 703.87 326.01 716.37 349.79 749.1 373.57 716.37 412.04 728.87 412.04 688.42 450.51 675.92 426.73 643.2"/>
  <polyline class="cls-5" points="326.01 650.92 302.24 683.65 326.01 716.37 364.48 703.87 364.48 663.42"/>
  <polygon class="cls-1" points="326.01 650.92 302.24 683.65 326.01 716.37 364.48 703.87 364.48 663.42 326.01 650.92"/>
  <polygon class="cls-2" points="474.28 194.59 498.06 186.87 474.28 154.14 450.51 186.87 474.28 194.59"/>
  <polygon class="cls-1" points="474.28 194.59 498.06 186.87 474.28 154.14 450.51 186.87 474.28 194.59"/>
  <polygon class="cls-2" points="225.29 194.59 249.07 186.87 225.29 154.14 201.52 186.87 225.29 194.59"/>
  <polygon class="cls-1" points="225.29 194.59 249.07 186.87 225.29 154.14 201.52 186.87 225.29 194.59"/>
  <polygon class="cls-2" points="225.29 668.2 201.52 675.92 225.29 708.65 249.07 675.92 225.29 668.2"/>
  <polygon class="cls-1" points="225.29 668.2 201.52 675.92 225.29 708.65 249.07 675.92 225.29 668.2"/>
  <polygon class="cls-2" points="474.28 668.2 450.51 675.92 474.28 708.65 498.06 675.92 474.28 668.2"/>
  <polygon class="cls-1" points="474.28 668.2 450.51 675.92 474.28 708.65 498.06 675.92 474.28 668.2"/>
  <polyline class="cls-5" points="177.74 219.59 153.96 186.87 115.49 199.37 115.49 239.82 153.96 252.32"/>
  <polygon class="cls-1" points="177.74 219.59 153.96 186.87 115.49 199.37 115.49 239.82 153.96 252.32 177.74 219.59"/>
  <polyline class="cls-3" points="177.74 219.59 201.52 186.87 163.05 174.37 163.05 133.92 124.58 146.42 100.8 113.69 77.02 146.42 115.49 158.92 115.49 199.37 153.96 186.87"/>
  <polygon class="cls-1" points="177.74 219.59 201.52 186.87 163.05 174.37 163.05 133.92 124.58 146.42 100.8 113.69 77.02 146.42 115.49 158.92 115.49 199.37 153.96 186.87 177.74 219.59"/>
  <polyline class="cls-5" points="177.74 431.4 153.96 398.67 115.49 411.17 115.49 451.62 153.96 464.12"/>
  <polygon class="cls-1" points="177.74 431.4 153.96 398.67 115.49 411.17 115.49 451.62 153.96 464.12 177.74 431.4"/>
  <polyline class="cls-3" points="177.74 643.2 153.96 675.92 115.49 663.42 115.49 703.87 77.02 716.37 100.8 749.1 124.58 716.37 163.05 728.87 163.05 688.42 201.52 675.92"/>
  <polygon class="cls-1" points="177.74 643.2 153.96 675.92 115.49 663.42 115.49 703.87 77.02 716.37 100.8 749.1 124.58 716.37 163.05 728.87 163.05 688.42 201.52 675.92 177.74 643.2"/>
  <polyline class="cls-5" points="177.74 643.2 153.96 610.47 115.49 622.97 115.49 663.42 153.96 675.92"/>
  <polygon class="cls-1" points="177.74 643.2 153.96 610.47 115.49 622.97 115.49 663.42 153.96 675.92 177.74 643.2"/>
  <polyline class="cls-5" points="498.06 186.87 536.53 174.37 536.53 133.92 498.06 121.42 474.28 154.14"/>
  <polygon class="cls-1" points="498.06 186.87 536.53 174.37 536.53 133.92 498.06 121.42 474.28 154.14 498.06 186.87"/>
  <polyline class="cls-5" points="450.51 186.87 474.28 154.14 450.51 121.42 412.04 133.92 412.04 174.37"/>
  <polygon class="cls-1" points="450.51 186.87 474.28 154.14 450.51 121.42 412.04 133.92 412.04 174.37 450.51 186.87"/>
  <polyline class="cls-5" points="249.07 186.87 287.54 174.37 287.54 133.92 249.07 121.42 225.29 154.14"/>
  <polygon class="cls-1" points="249.07 186.87 287.54 174.37 287.54 133.92 249.07 121.42 225.29 154.14 249.07 186.87"/>
  <polyline class="cls-5" points="201.52 186.87 225.29 154.14 201.52 121.42 163.05 133.92 163.05 174.37"/>
  <polygon class="cls-1" points="201.52 186.87 225.29 154.14 201.52 121.42 163.05 133.92 163.05 174.37 201.52 186.87"/>
  <polyline class="cls-5" points="201.52 675.92 163.05 688.42 163.05 728.87 201.52 741.37 225.29 708.65"/>
  <polygon class="cls-1" points="201.52 675.92 163.05 688.42 163.05 728.87 201.52 741.37 225.29 708.65 201.52 675.92"/>
  <polyline class="cls-5" points="249.07 675.92 225.29 708.65 249.07 741.37 287.54 728.87 287.54 688.42"/>
  <polygon class="cls-1" points="249.07 675.92 225.29 708.65 249.07 741.37 287.54 728.87 287.54 688.42 249.07 675.92"/>
  <polyline class="cls-5" points="450.51 675.92 412.04 688.42 412.04 728.87 450.51 741.37 474.28 708.65"/>
  <polygon class="cls-1" points="450.51 675.92 412.04 688.42 412.04 728.87 450.51 741.37 474.28 708.65 450.51 675.92"/>
  <polyline class="cls-5" points="498.06 675.92 474.28 708.65 498.06 741.37 536.53 728.87 536.53 688.42"/>
  <polygon class="cls-1" points="498.06 675.92 474.28 708.65 498.06 741.37 536.53 728.87 536.53 688.42 498.06 675.92"/>
  <polygon class="cls-2" points="287.54 174.37 311.32 166.64 326.01 146.42 287.54 133.92 287.54 174.37"/>
  <polygon class="cls-1" points="287.54 174.37 311.32 166.64 326.01 146.42 287.54 133.92 287.54 174.37"/>
  <polyline class="cls-4" points="536.53 638.42 575 650.92 589.7 630.7 613.47 622.97 613.47 582.52 575 570.02 560.31 590.25 536.53 597.97"/>
  <polygon class="cls-1" points="536.53 638.42 575 650.92 589.7 630.7 613.47 622.97 613.47 582.52 575 570.02 560.31 590.25 536.53 597.97 536.53 638.42"/>
  <polygon class="cls-2" points="536.53 597.97 560.31 590.25 575 570.02 536.53 557.52 536.53 597.97"/>
  <polygon class="cls-1" points="536.53 597.97 560.31 590.25 575 570.02 536.53 557.52 536.53 597.97"/>
  <polyline class="cls-5" points="536.53 557.52 575 570.02 598.78 537.3 575 504.57 536.53 517.07"/>
  <polygon class="cls-1" points="536.53 557.52 575 570.02 598.78 537.3 575 504.57 536.53 517.07 536.53 557.52"/>
  <polygon class="cls-2" points="536.53 517.07 575 504.57 560.31 484.35 536.53 476.62 536.53 517.07"/>
  <polygon class="cls-1" points="536.53 517.07 575 504.57 560.31 484.35 536.53 476.62 536.53 517.07"/>
  <polyline class="cls-4" points="536.53 476.62 560.31 484.35 575 504.57 613.47 492.07 613.47 451.62 589.7 443.9 575 423.67 536.53 436.17"/>
  <polygon class="cls-1" points="536.53 476.62 560.31 484.35 575 504.57 613.47 492.07 613.47 451.62 589.7 443.9 575 423.67 536.53 436.17 536.53 476.62"/>
  <polyline class="cls-5" points="536.53 345.72 575 358.22 598.78 325.49 575 292.77 536.53 305.27"/>
  <polygon class="cls-1" points="536.53 345.72 575 358.22 598.78 325.49 575 292.77 536.53 305.27 536.53 345.72"/>
  <polyline class="cls-4" points="536.53 214.82 575 227.32 589.7 207.09 613.47 199.37 613.47 158.92 575 146.42 560.31 166.64 536.53 174.37"/>
  <polygon class="cls-1" points="536.53 214.82 575 227.32 589.7 207.09 613.47 199.37 613.47 158.92 575 146.42 560.31 166.64 536.53 174.37 536.53 214.82"/>
  <polygon class="cls-2" points="536.53 174.37 560.31 166.64 575 146.42 536.53 133.92 536.53 174.37"/>
  <polygon class="cls-1" points="536.53 174.37 560.31 166.64 575 146.42 536.53 133.92 536.53 174.37"/>
  <polyline class="cls-5" points="163.05 305.27 124.58 292.77 100.8 325.49 124.58 358.22 163.05 345.72"/>
  <polygon class="cls-1" points="163.05 305.27 124.58 292.77 100.8 325.49 124.58 358.22 163.05 345.72 163.05 305.27"/>
  <polyline class="cls-5" points="163.05 517.07 124.58 504.57 100.8 537.3 124.58 570.02 163.05 557.52"/>
  <polygon class="cls-1" points="163.05 517.07 124.58 504.57 100.8 537.3 124.58 570.02 163.05 557.52 163.05 517.07"/>
  <polyline class="cls-3" points="474.28 154.14 498.06 121.42 536.53 133.92 536.53 93.46 498.06 105.96 474.28 73.24 450.51 105.96 412.04 93.46 412.04 133.92 450.51 121.42"/>
  <polygon class="cls-1" points="474.28 154.14 498.06 121.42 536.53 133.92 536.53 93.46 498.06 105.96 474.28 73.24 450.51 105.96 412.04 93.46 412.04 133.92 450.51 121.42 474.28 154.14"/>
  <polyline class="cls-3" points="225.29 154.14 249.07 121.42 287.54 133.92 287.54 93.46 249.07 105.96 225.29 73.24 201.52 105.96 163.05 93.46 163.05 133.92 201.52 121.42"/>
  <polygon class="cls-1" points="225.29 154.14 249.07 121.42 287.54 133.92 287.54 93.46 249.07 105.96 225.29 73.24 201.52 105.96 163.05 93.46 163.05 133.92 201.52 121.42 225.29 154.14"/>
  <polyline class="cls-5" points="551.23 683.65 575 716.37 613.47 703.87 613.47 663.42 575 650.92"/>
  <polygon class="cls-1" points="551.23 683.65 575 716.37 613.47 703.87 613.47 663.42 575 650.92 551.23 683.65"/>
  <polyline class="cls-5" points="551.23 390.94 575 423.67 613.47 411.17 613.47 370.72 575 358.22"/>
  <polygon class="cls-1" points="551.23 390.94 575 423.67 613.47 411.17 613.47 370.72 575 358.22 551.23 390.94"/>
  <polyline class="cls-5" points="551.23 260.04 575 292.77 613.47 280.27 613.47 239.82 575 227.32"/>
  <polygon class="cls-1" points="551.23 260.04 575 292.77 613.47 280.27 613.47 239.82 575 227.32 551.23 260.04"/>
  <polyline class="cls-3" points="225.29 708.65 201.52 741.37 163.05 728.87 163.05 769.33 201.52 756.83 225.29 789.55 249.07 756.83 287.54 769.33 287.54 728.87 249.07 741.37"/>
  <polygon class="cls-1" points="225.29 708.65 201.52 741.37 163.05 728.87 163.05 769.33 201.52 756.83 225.29 789.55 249.07 756.83 287.54 769.33 287.54 728.87 249.07 741.37 225.29 708.65"/>
  <polyline class="cls-3" points="474.28 708.65 450.51 741.37 412.04 728.87 412.04 769.33 450.51 756.83 474.28 789.55 498.06 756.83 536.53 769.33 536.53 728.87 498.06 741.37"/>
  <polygon class="cls-1" points="474.28 708.65 450.51 741.37 412.04 728.87 412.04 769.33 450.51 756.83 474.28 789.55 498.06 756.83 536.53 769.33 536.53 728.87 498.06 741.37 474.28 708.65"/>
  <polyline class="cls-5" points="373.57 146.42 412.04 133.92 412.04 93.46 373.57 80.96 349.79 113.69"/>
  <polygon class="cls-1" points="373.57 146.42 412.04 133.92 412.04 93.46 373.57 80.96 349.79 113.69 373.57 146.42"/>
  <polyline class="cls-5" points="326.01 146.42 349.79 113.69 326.01 80.96 287.54 93.46 287.54 133.92"/>
  <polygon class="cls-1" points="326.01 146.42 349.79 113.69 326.01 80.96 287.54 93.46 287.54 133.92 326.01 146.42"/>
  <polyline class="cls-5" points="326.01 716.37 287.54 728.87 287.54 769.33 326.01 781.83 349.79 749.1"/>
  <polygon class="cls-1" points="326.01 716.37 287.54 728.87 287.54 769.33 326.01 781.83 349.79 749.1 326.01 716.37"/>
  <polyline class="cls-5" points="373.57 716.37 349.79 749.1 373.57 781.83 412.04 769.33 412.04 728.87"/>
  <polygon class="cls-1" points="373.57 716.37 349.79 749.1 373.57 781.83 412.04 769.33 412.04 728.87 373.57 716.37"/>
  <polyline class="cls-5" points="536.53 133.92 575 146.42 598.78 113.69 575 80.96 536.53 93.46"/>
  <polygon class="cls-1" points="536.53 133.92 575 146.42 598.78 113.69 575 80.96 536.53 93.46 536.53 133.92"/>
  <polyline class="cls-5" points="163.05 133.92 163.05 93.46 124.58 80.96 100.8 113.69 124.58 146.42"/>
  <polygon class="cls-1" points="163.05 133.92 163.05 93.46 124.58 80.96 100.8 113.69 124.58 146.42 163.05 133.92"/>
  <polyline class="cls-5" points="163.05 728.87 124.58 716.37 100.8 749.1 124.58 781.83 163.05 769.33"/>
  <polygon class="cls-1" points="163.05 728.87 124.58 716.37 100.8 749.1 124.58 781.83 163.05 769.33 163.05 728.87"/>
  <polyline class="cls-5" points="536.53 728.87 536.53 769.33 575 781.83 598.78 749.1 575 716.37"/>
  <polygon class="cls-1" points="536.53 728.87 536.53 769.33 575 781.83 598.78 749.1 575 716.37 536.53 728.87"/>
  <polyline class="cls-3" points="575 716.37 598.78 749.1 622.56 716.37 661.03 728.87 661.03 688.42 699.5 675.92 675.72 643.2 651.94 675.92 613.47 663.42 613.47 703.87"/>
  <polygon class="cls-1" points="575 716.37 598.78 749.1 622.56 716.37 661.03 728.87 661.03 688.42 699.5 675.92 675.72 643.2 651.94 675.92 613.47 663.42 613.47 703.87 575 716.37"/>
  <polygon class="cls-2" points="575 650.92 613.47 663.42 613.47 622.97 589.7 630.7 575 650.92"/>
  <polygon class="cls-1" points="575 650.92 613.47 663.42 613.47 622.97 589.7 630.7 575 650.92"/>
  <polyline class="cls-3" points="575 570.02 613.47 582.52 613.47 622.97 651.94 610.47 675.72 643.2 699.5 610.47 661.03 597.97 661.03 557.52 622.56 570.02 598.78 537.3"/>
  <polygon class="cls-1" points="575 570.02 613.47 582.52 613.47 622.97 651.94 610.47 675.72 643.2 699.5 610.47 661.03 597.97 661.03 557.52 622.56 570.02 598.78 537.3 575 570.02"/>
  <polyline class="cls-3" points="575 504.57 598.78 537.3 622.56 504.57 661.03 517.07 661.03 476.62 699.5 464.12 675.72 431.4 651.94 464.12 613.47 451.62 613.47 492.07"/>
  <polygon class="cls-1" points="575 504.57 598.78 537.3 622.56 504.57 661.03 517.07 661.03 476.62 699.5 464.12 675.72 431.4 651.94 464.12 613.47 451.62 613.47 492.07 575 504.57"/>
  <polygon class="cls-2" points="575 423.67 589.7 443.9 613.47 451.62 613.47 411.17 575 423.67"/>
  <polygon class="cls-1" points="575 423.67 589.7 443.9 613.47 451.62 613.47 411.17 575 423.67"/>
  <polyline class="cls-3" points="575 358.22 613.47 370.72 613.47 411.17 651.94 398.67 675.72 431.4 699.5 398.67 661.03 386.17 661.03 345.72 622.56 358.22 598.78 325.49"/>
  <polygon class="cls-1" points="575 358.22 613.47 370.72 613.47 411.17 651.94 398.67 675.72 431.4 699.5 398.67 661.03 386.17 661.03 345.72 622.56 358.22 598.78 325.49 575 358.22"/>
  <polyline class="cls-3" points="575 292.77 598.78 325.49 622.56 292.77 661.03 305.27 661.03 264.82 699.5 252.32 675.72 219.59 651.94 252.32 613.47 239.82 613.47 280.27"/>
  <polygon class="cls-1" points="575 292.77 598.78 325.49 622.56 292.77 661.03 305.27 661.03 264.82 699.5 252.32 675.72 219.59 651.94 252.32 613.47 239.82 613.47 280.27 575 292.77"/>
  <polygon class="cls-2" points="575 227.32 613.47 239.82 613.47 199.37 589.7 207.09 575 227.32"/>
  <polygon class="cls-1" points="575 227.32 613.47 239.82 613.47 199.37 589.7 207.09 575 227.32"/>
  <polyline class="cls-3" points="575 146.42 613.47 158.92 613.47 199.37 651.94 186.87 675.72 219.59 699.5 186.87 661.03 174.37 661.03 133.92 622.56 146.42 598.78 113.69"/>
  <polygon class="cls-1" points="575 146.42 613.47 158.92 613.47 199.37 651.94 186.87 675.72 219.59 699.5 186.87 661.03 174.37 661.03 133.92 622.56 146.42 598.78 113.69 575 146.42"/>
  <polyline class="cls-3" points="349.79 113.69 373.57 80.96 412.04 93.46 412.04 53.01 450.51 40.51 426.73 7.79 402.95 40.51 364.48 28.01 364.48 68.46 326.01 80.96"/>
  <polygon class="cls-1" points="349.79 113.69 373.57 80.96 412.04 93.46 412.04 53.01 450.51 40.51 426.73 7.79 402.95 40.51 364.48 28.01 364.48 68.46 326.01 80.96 349.79 113.69"/>
  <polyline class="cls-3" points="349.79 749.1 326.01 781.83 364.48 794.33 364.48 834.78 402.95 822.28 426.73 855 450.51 822.28 412.04 809.78 412.04 769.33 373.57 781.83"/>
  <polygon class="cls-1" points="349.79 749.1 326.01 781.83 364.48 794.33 364.48 834.78 402.95 822.28 426.73 855 450.51 822.28 412.04 809.78 412.04 769.33 373.57 781.83 349.79 749.1"/>
  <polyline class="cls-5" points="498.06 105.96 536.53 93.46 536.53 53.01 498.06 40.51 474.28 73.24"/>
  <polygon class="cls-1" points="498.06 105.96 536.53 93.46 536.53 53.01 498.06 40.51 474.28 73.24 498.06 105.96"/>
  <polyline class="cls-5" points="450.51 105.96 474.28 73.24 450.51 40.51 412.04 53.01 412.04 93.46"/>
  <polygon class="cls-1" points="450.51 105.96 474.28 73.24 450.51 40.51 412.04 53.01 412.04 93.46 450.51 105.96"/>
  <polyline class="cls-5" points="249.07 105.96 287.54 93.46 287.54 53.01 249.07 40.51 225.29 73.24"/>
  <polygon class="cls-1" points="249.07 105.96 287.54 93.46 287.54 53.01 249.07 40.51 225.29 73.24 249.07 105.96"/>
  <polyline class="cls-5" points="201.52 105.96 225.29 73.24 201.52 40.51 163.05 53.01 163.05 93.46"/>
  <polygon class="cls-1" points="201.52 105.96 225.29 73.24 201.52 40.51 163.05 53.01 163.05 93.46 201.52 105.96"/>
  <polyline class="cls-4" points="115.49 158.92 77.02 146.42 62.33 166.64 38.55 174.37 38.55 214.82 77.02 227.32 91.72 207.09 115.49 199.37"/>
  <polygon class="cls-1" points="115.49 158.92 77.02 146.42 62.33 166.64 38.55 174.37 38.55 214.82 77.02 227.32 91.72 207.09 115.49 199.37 115.49 158.92"/>
  <polygon class="cls-2" points="115.49 199.37 91.72 207.09 77.02 227.32 115.49 239.82 115.49 199.37"/>
  <polygon class="cls-1" points="115.49 199.37 91.72 207.09 77.02 227.32 115.49 239.82 115.49 199.37"/>
  <polyline class="cls-5" points="115.49 239.82 77.02 227.32 53.25 260.04 77.02 292.77 115.49 280.27"/>
  <polygon class="cls-1" points="115.49 239.82 77.02 227.32 53.25 260.04 77.02 292.77 115.49 280.27 115.49 239.82"/>
  <polyline class="cls-5" points="115.49 370.72 77.02 358.22 53.25 390.94 77.02 423.67 115.49 411.17"/>
  <polygon class="cls-1" points="115.49 370.72 77.02 358.22 53.25 390.94 77.02 423.67 115.49 411.17 115.49 370.72"/>
  <polygon class="cls-2" points="115.49 411.17 77.02 423.67 91.72 443.9 115.49 451.62 115.49 411.17"/>
  <polygon class="cls-1" points="115.49 411.17 77.02 423.67 91.72 443.9 115.49 451.62 115.49 411.17"/>
  <polyline class="cls-4" points="115.49 451.62 91.72 443.9 77.02 423.67 38.55 436.17 38.55 476.62 62.33 484.35 77.02 504.57 115.49 492.07"/>
  <polygon class="cls-1" points="115.49 451.62 91.72 443.9 77.02 423.67 38.55 436.17 38.55 476.62 62.33 484.35 77.02 504.57 115.49 492.07 115.49 451.62"/>
  <polyline class="cls-4" points="115.49 582.52 77.02 570.02 62.33 590.25 38.55 597.97 38.55 638.42 77.02 650.92 91.72 630.7 115.49 622.97"/>
  <polygon class="cls-1" points="115.49 582.52 77.02 570.02 62.33 590.25 38.55 597.97 38.55 638.42 77.02 650.92 91.72 630.7 115.49 622.97 115.49 582.52"/>
  <polygon class="cls-2" points="115.49 622.97 91.72 630.7 77.02 650.92 115.49 663.42 115.49 622.97"/>
  <polygon class="cls-1" points="115.49 622.97 91.72 630.7 77.02 650.92 115.49 663.42 115.49 622.97"/>
  <polyline class="cls-5" points="115.49 663.42 77.02 650.92 53.25 683.65 77.02 716.37 115.49 703.87"/>
  <polygon class="cls-1" points="115.49 663.42 77.02 650.92 53.25 683.65 77.02 716.37 115.49 703.87 115.49 663.42"/>
  <polyline class="cls-5" points="201.52 756.83 163.05 769.33 163.05 809.78 201.52 822.28 225.29 789.55"/>
  <polygon class="cls-1" points="201.52 756.83 163.05 769.33 163.05 809.78 201.52 822.28 225.29 789.55 201.52 756.83"/>
  <polyline class="cls-5" points="249.07 756.83 225.29 789.55 249.07 822.28 287.54 809.78 287.54 769.33"/>
  <polygon class="cls-1" points="249.07 756.83 225.29 789.55 249.07 822.28 287.54 809.78 287.54 769.33 249.07 756.83"/>
  <polyline class="cls-5" points="450.51 756.83 412.04 769.33 412.04 809.78 450.51 822.28 474.28 789.55"/>
  <polygon class="cls-1" points="450.51 756.83 412.04 769.33 412.04 809.78 450.51 822.28 474.28 789.55 450.51 756.83"/>
  <polyline class="cls-5" points="498.06 756.83 474.28 789.55 498.06 822.28 536.53 809.78 536.53 769.33"/>
  <polygon class="cls-1" points="498.06 756.83 474.28 789.55 498.06 822.28 536.53 809.78 536.53 769.33 498.06 756.83"/>
  <polygon class="cls-2" points="536.53 93.46 575 80.96 560.31 60.74 536.53 53.01 536.53 93.46"/>
  <polygon class="cls-1" points="536.53 93.46 575 80.96 560.31 60.74 536.53 53.01 536.53 93.46"/>
  <polygon class="cls-2" points="287.54 93.46 326.01 80.96 311.32 60.74 287.54 53.01 287.54 93.46"/>
  <polygon class="cls-1" points="287.54 93.46 326.01 80.96 311.32 60.74 287.54 53.01 287.54 93.46"/>
  <polyline class="cls-3" points="163.05 93.46 163.05 53.01 201.52 40.51 177.74 7.79 153.96 40.51 115.49 28.01 115.49 68.46 77.02 80.96 100.8 113.69 124.58 80.96"/>
  <polygon class="cls-1" points="163.05 93.46 163.05 53.01 201.52 40.51 177.74 7.79 153.96 40.51 115.49 28.01 115.49 68.46 77.02 80.96 100.8 113.69 124.58 80.96 163.05 93.46"/>
  <polyline class="cls-5" points="598.78 749.1 622.56 781.83 661.03 769.33 661.03 728.87 622.56 716.37"/>
  <polygon class="cls-1" points="598.78 749.1 622.56 781.83 661.03 769.33 661.03 728.87 622.56 716.37 598.78 749.1"/>
  <polyline class="cls-3" points="598.78 749.1 575 781.83 613.47 794.33 613.47 834.78 651.94 822.28 675.72 855 699.5 822.28 661.03 809.78 661.03 769.33 622.56 781.83"/>
  <polygon class="cls-1" points="598.78 749.1 575 781.83 613.47 794.33 613.47 834.78 651.94 822.28 675.72 855 699.5 822.28 661.03 809.78 661.03 769.33 622.56 781.83 598.78 749.1"/>
  <polyline class="cls-5" points="598.78 537.3 622.56 570.02 661.03 557.52 661.03 517.07 622.56 504.57"/>
  <polygon class="cls-1" points="598.78 537.3 622.56 570.02 661.03 557.52 661.03 517.07 622.56 504.57 598.78 537.3"/>
  <polyline class="cls-5" points="598.78 325.49 622.56 358.22 661.03 345.72 661.03 305.27 622.56 292.77"/>
  <polygon class="cls-1" points="598.78 325.49 622.56 358.22 661.03 345.72 661.03 305.27 622.56 292.77 598.78 325.49"/>
  <polyline class="cls-3" points="598.78 113.69 622.56 80.96 661.03 93.46 661.03 53.01 699.5 40.51 675.72 7.79 651.94 40.51 613.47 28.01 613.47 68.46 575 80.96"/>
  <polygon class="cls-1" points="598.78 113.69 622.56 80.96 661.03 93.46 661.03 53.01 699.5 40.51 675.72 7.79 651.94 40.51 613.47 28.01 613.47 68.46 575 80.96 598.78 113.69"/>
  <polyline class="cls-5" points="598.78 113.69 622.56 146.42 661.03 133.92 661.03 93.46 622.56 80.96"/>
  <polygon class="cls-1" points="598.78 113.69 622.56 146.42 661.03 133.92 661.03 93.46 622.56 80.96 598.78 113.69"/>
  <polyline class="cls-3" points="163.05 769.33 124.58 781.83 100.8 749.1 77.02 781.83 115.49 794.33 115.49 834.78 153.96 822.28 177.74 855 201.52 822.28 163.05 809.78"/>
  <polygon class="cls-1" points="163.05 769.33 124.58 781.83 100.8 749.1 77.02 781.83 115.49 794.33 115.49 834.78 153.96 822.28 177.74 855 201.52 822.28 163.05 809.78 163.05 769.33"/>
  <polyline class="cls-3" points="287.54 769.33 287.54 809.78 249.07 822.28 272.85 855 249.07 887.73 287.54 900.23 287.54 859.78 326.01 847.28 302.24 814.55 326.01 781.83"/>
  <polygon class="cls-1" points="287.54 769.33 287.54 809.78 249.07 822.28 272.85 855 249.07 887.73 287.54 900.23 287.54 859.78 326.01 847.28 302.24 814.55 326.01 781.83 287.54 769.33"/>
  <polyline class="cls-3" points="536.53 769.33 536.53 809.78 498.06 822.28 521.84 855 498.06 887.73 536.53 900.23 536.53 859.78 575 847.28 551.23 814.55 575 781.83"/>
  <polygon class="cls-1" points="536.53 769.33 536.53 809.78 498.06 822.28 521.84 855 498.06 887.73 536.53 900.23 536.53 859.78 575 847.28 551.23 814.55 575 781.83 536.53 769.33"/>
  <polyline class="cls-5" points="100.8 113.69 77.02 80.96 38.55 93.46 38.55 133.92 77.02 146.42"/>
  <polygon class="cls-1" points="100.8 113.69 77.02 80.96 38.55 93.46 38.55 133.92 77.02 146.42 100.8 113.69"/>
  <polyline class="cls-5" points="100.8 325.49 77.02 292.77 38.55 305.27 38.55 345.72 77.02 358.22"/>
  <polygon class="cls-1" points="100.8 325.49 77.02 292.77 38.55 305.27 38.55 345.72 77.02 358.22 100.8 325.49"/>
  <polyline class="cls-5" points="100.8 537.3 77.02 504.57 38.55 517.07 38.55 557.52 77.02 570.02"/>
  <polygon class="cls-1" points="100.8 537.3 77.02 504.57 38.55 517.07 38.55 557.52 77.02 570.02 100.8 537.3"/>
  <polyline class="cls-5" points="100.8 749.1 77.02 716.37 38.55 728.87 38.55 769.33 77.02 781.83"/>
  <polygon class="cls-1" points="100.8 749.1 77.02 716.37 38.55 728.87 38.55 769.33 77.02 781.83 100.8 749.1"/>
  <polyline class="cls-4" points="575 80.96 613.47 68.46 613.47 28.01 589.7 20.29 575 .06 536.53 12.56 536.53 53.01 560.31 60.74"/>
  <polygon class="cls-1" points="575 80.96 613.47 68.46 613.47 28.01 589.7 20.29 575 .06 536.53 12.56 536.53 53.01 560.31 60.74 575 80.96"/>
  <polyline class="cls-4" points="326.01 80.96 364.48 68.46 364.48 28.01 340.71 20.29 326.01 .06 287.54 12.56 287.54 53.01 311.32 60.74"/>
  <polygon class="cls-1" points="326.01 80.96 364.48 68.46 364.48 28.01 340.71 20.29 326.01 .06 287.54 12.56 287.54 53.01 311.32 60.74 326.01 80.96"/>
  <polyline class="cls-5" points="326.01 781.83 302.24 814.55 326.01 847.28 364.48 834.78 364.48 794.33"/>
  <polygon class="cls-1" points="326.01 781.83 302.24 814.55 326.01 847.28 364.48 834.78 364.48 794.33 326.01 781.83"/>
  <polyline class="cls-5" points="575 781.83 551.23 814.55 575 847.28 613.47 834.78 613.47 794.33"/>
  <polygon class="cls-1" points="575 781.83 551.23 814.55 575 847.28 613.47 834.78 613.47 794.33 575 781.83"/>
  <polygon class="cls-2" points="474.28 73.24 498.06 40.51 474.28 32.79 450.51 40.51 474.28 73.24"/>
  <polygon class="cls-1" points="474.28 73.24 498.06 40.51 474.28 32.79 450.51 40.51 474.28 73.24"/>
  <polygon class="cls-2" points="225.29 73.24 249.07 40.51 225.29 32.79 201.52 40.51 225.29 73.24"/>
  <polygon class="cls-1" points="225.29 73.24 249.07 40.51 225.29 32.79 201.52 40.51 225.29 73.24"/>
  <polyline class="cls-4" points="115.49 68.46 115.49 28.01 91.72 20.29 77.02 .06 38.55 12.56 38.55 53.01 62.33 60.74 77.02 80.96"/>
  <polygon class="cls-1" points="115.49 68.46 115.49 28.01 91.72 20.29 77.02 .06 38.55 12.56 38.55 53.01 62.33 60.74 77.02 80.96 115.49 68.46"/>
  <polyline class="cls-5" points="613.47 663.42 651.94 675.92 675.72 643.2 651.94 610.47 613.47 622.97"/>
  <polygon class="cls-1" points="613.47 663.42 651.94 675.92 675.72 643.2 651.94 610.47 613.47 622.97 613.47 663.42"/>
  <polyline class="cls-5" points="613.47 451.62 651.94 464.12 675.72 431.4 651.94 398.67 613.47 411.17"/>
  <polygon class="cls-1" points="613.47 451.62 651.94 464.12 675.72 431.4 651.94 398.67 613.47 411.17 613.47 451.62"/>
  <polyline class="cls-5" points="613.47 239.82 651.94 252.32 675.72 219.59 651.94 186.87 613.47 199.37"/>
  <polygon class="cls-1" points="613.47 239.82 651.94 252.32 675.72 219.59 651.94 186.87 613.47 199.37 613.47 239.82"/>
  <polygon class="cls-2" points="225.29 789.55 201.52 822.28 225.29 830 249.07 822.28 225.29 789.55"/>
  <polygon class="cls-1" points="225.29 789.55 201.52 822.28 225.29 830 249.07 822.28 225.29 789.55"/>
  <polygon class="cls-2" points="474.28 789.55 450.51 822.28 474.28 830 498.06 822.28 474.28 789.55"/>
  <polygon class="cls-1" points="474.28 789.55 450.51 822.28 474.28 830 498.06 822.28 474.28 789.55"/>
  <polyline class="cls-5" points="115.49 794.33 77.02 781.83 53.25 814.55 77.02 847.28 115.49 834.78"/>
  <polygon class="cls-1" points="115.49 794.33 77.02 781.83 53.25 814.55 77.02 847.28 115.49 834.78 115.49 794.33"/>
  <polygon class="cls-2" points="77.02 80.96 62.33 60.74 38.55 53.01 38.55 93.46 77.02 80.96"/>
  <polygon class="cls-1" points="77.02 80.96 62.33 60.74 38.55 53.01 38.55 93.46 77.02 80.96"/>
  <polygon class="cls-2" points="77.02 146.42 38.55 133.92 38.55 174.37 62.33 166.64 77.02 146.42"/>
  <polygon class="cls-1" points="77.02 146.42 38.55 133.92 38.55 174.37 62.33 166.64 77.02 146.42"/>
  <polyline class="cls-3" points="77.02 227.32 38.55 214.82 38.55 174.37 .08 186.87 23.86 219.59 .08 252.32 38.55 264.82 38.55 305.27 77.02 292.77 53.25 260.04"/>
  <polygon class="cls-1" points="77.02 227.32 38.55 214.82 38.55 174.37 .08 186.87 23.86 219.59 .08 252.32 38.55 264.82 38.55 305.27 77.02 292.77 53.25 260.04 77.02 227.32"/>
  <polyline class="cls-3" points="77.02 358.22 38.55 345.72 38.55 386.17 .08 398.67 23.86 431.4 .08 464.12 38.55 476.62 38.55 436.17 77.02 423.67 53.25 390.94"/>
  <polygon class="cls-1" points="77.02 358.22 38.55 345.72 38.55 386.17 .08 398.67 23.86 431.4 .08 464.12 38.55 476.62 38.55 436.17 77.02 423.67 53.25 390.94 77.02 358.22"/>
  <polygon class="cls-2" points="77.02 504.57 62.33 484.35 38.55 476.62 38.55 517.07 77.02 504.57"/>
  <polygon class="cls-1" points="77.02 504.57 62.33 484.35 38.55 476.62 38.55 517.07 77.02 504.57"/>
  <polygon class="cls-2" points="77.02 570.02 38.55 557.52 38.55 597.97 62.33 590.25 77.02 570.02"/>
  <polygon class="cls-1" points="77.02 570.02 38.55 557.52 38.55 597.97 62.33 590.25 77.02 570.02"/>
  <polyline class="cls-3" points="77.02 650.92 38.55 638.42 38.55 597.97 .08 610.47 23.86 643.2 .08 675.92 38.55 688.42 38.55 728.87 77.02 716.37 53.25 683.65"/>
  <polygon class="cls-1" points="77.02 650.92 38.55 638.42 38.55 597.97 .08 610.47 23.86 643.2 .08 675.92 38.55 688.42 38.55 728.87 77.02 716.37 53.25 683.65 77.02 650.92"/>
  <polyline class="cls-3" points="77.02 781.83 38.55 769.33 38.55 809.78 .08 822.28 23.86 855 .08 887.73 38.55 900.23 38.55 859.78 77.02 847.28 53.25 814.55"/>
  <polygon class="cls-1" points="77.02 781.83 38.55 769.33 38.55 809.78 .08 822.28 23.86 855 .08 887.73 38.55 900.23 38.55 859.78 77.02 847.28 53.25 814.55 77.02 781.83"/>
  <polyline class="cls-5" points="153.96 822.28 115.49 834.78 115.49 875.23 153.96 887.73 177.74 855"/>
  <polygon class="cls-1" points="153.96 822.28 115.49 834.78 115.49 875.23 153.96 887.73 177.74 855 153.96 822.28"/>
  <polyline class="cls-4" points="201.52 822.28 177.74 855 201.52 887.73 225.29 880 249.07 887.73 272.85 855 249.07 822.28 225.29 830"/>
  <polygon class="cls-1" points="201.52 822.28 177.74 855 201.52 887.73 225.29 880 249.07 887.73 272.85 855 249.07 822.28 225.29 830 201.52 822.28"/>
  <polyline class="cls-5" points="402.95 822.28 364.48 834.78 364.48 875.23 402.95 887.73 426.73 855"/>
  <polygon class="cls-1" points="402.95 822.28 364.48 834.78 364.48 875.23 402.95 887.73 426.73 855 402.95 822.28"/>
  <polyline class="cls-4" points="450.51 822.28 426.73 855 450.51 887.73 474.28 880 498.06 887.73 521.84 855 498.06 822.28 474.28 830"/>
  <polygon class="cls-1" points="450.51 822.28 426.73 855 450.51 887.73 474.28 880 498.06 887.73 521.84 855 498.06 822.28 474.28 830 450.51 822.28"/>
  <polygon class="cls-2" points="115.49 834.78 77.02 847.28 91.72 867.5 115.49 875.23 115.49 834.78"/>
  <polygon class="cls-1" points="115.49 834.78 77.02 847.28 91.72 867.5 115.49 875.23 115.49 834.78"/>
  <polygon class="cls-2" points="364.48 834.78 326.01 847.28 340.71 867.5 364.48 875.23 364.48 834.78"/>
  <polygon class="cls-1" points="364.48 834.78 326.01 847.28 340.71 867.5 364.48 875.23 364.48 834.78"/>
  <polyline class="cls-5" points="613.47 834.78 613.47 875.23 651.94 887.73 675.72 855 651.94 822.28"/>
  <polygon class="cls-1" points="613.47 834.78 613.47 875.23 651.94 887.73 675.72 855 651.94 822.28 613.47 834.78"/>
  <polygon class="cls-2" points="613.47 834.78 575 847.28 589.7 867.5 613.47 875.23 613.47 834.78"/>
  <polygon class="cls-1" points="613.47 834.78 575 847.28 589.7 867.5 613.47 875.23 613.47 834.78"/>
  <polyline class="cls-4" points="575 847.28 536.53 859.78 536.53 900.23 560.31 907.95 575 928.18 613.47 915.68 613.47 875.23 589.7 867.5"/>
  <polygon class="cls-1" points="575 847.28 536.53 859.78 536.53 900.23 560.31 907.95 575 928.18 613.47 915.68 613.47 875.23 589.7 867.5 575 847.28"/>
  <polyline class="cls-4" points="77.02 847.28 38.55 859.78 38.55 900.23 62.33 907.95 77.02 928.18 115.49 915.68 115.49 875.23 91.72 867.5"/>
  <polygon class="cls-1" points="77.02 847.28 38.55 859.78 38.55 900.23 62.33 907.95 77.02 928.18 115.49 915.68 115.49 875.23 91.72 867.5 77.02 847.28"/>
  <polyline class="cls-4" points="326.01 847.28 287.54 859.78 287.54 900.23 311.32 907.95 326.01 928.18 364.48 915.68 364.48 875.23 340.71 867.5"/>
  <polygon class="cls-1" points="326.01 847.28 287.54 859.78 287.54 900.23 311.32 907.95 326.01 928.18 364.48 915.68 364.48 875.23 340.71 867.5 326.01 847.28"/>
  <polyline class="cls-5" points="661.03 809.78 699.5 822.28 723.27 789.55 699.5 756.83 661.03 769.33"/>
  <polygon class="cls-1" points="661.03 809.78 699.5 822.28 723.27 789.55 699.5 756.83 661.03 769.33 661.03 809.78"/>
  <polyline class="cls-3" points="661.03 769.33 699.5 756.83 723.27 789.55 747.05 756.83 785.52 769.33 785.52 728.87 747.05 741.37 723.27 708.65 699.5 741.37 661.03 728.87"/>
  <polygon class="cls-1" points="661.03 769.33 699.5 756.83 723.27 789.55 747.05 756.83 785.52 769.33 785.52 728.87 747.05 741.37 723.27 708.65 699.5 741.37 661.03 728.87 661.03 769.33"/>
  <polyline class="cls-5" points="661.03 728.87 699.5 741.37 723.27 708.65 699.5 675.92 661.03 688.42"/>
  <polygon class="cls-1" points="661.03 728.87 699.5 741.37 723.27 708.65 699.5 675.92 661.03 688.42 661.03 728.87"/>
  <polyline class="cls-5" points="661.03 597.97 699.5 610.47 723.27 577.75 699.5 545.02 661.03 557.52"/>
  <polygon class="cls-1" points="661.03 597.97 699.5 610.47 723.27 577.75 699.5 545.02 661.03 557.52 661.03 597.97"/>
  <polyline class="cls-3" points="661.03 557.52 699.5 545.02 723.27 577.75 747.05 545.02 785.52 557.52 785.52 517.07 747.05 529.57 723.27 496.85 699.5 529.57 661.03 517.07"/>
  <polygon class="cls-1" points="661.03 557.52 699.5 545.02 723.27 577.75 747.05 545.02 785.52 557.52 785.52 517.07 747.05 529.57 723.27 496.85 699.5 529.57 661.03 517.07 661.03 557.52"/>
  <polyline class="cls-5" points="661.03 517.07 699.5 529.57 723.27 496.85 699.5 464.12 661.03 476.62"/>
  <polygon class="cls-1" points="661.03 517.07 699.5 529.57 723.27 496.85 699.5 464.12 661.03 476.62 661.03 517.07"/>
  <polyline class="cls-5" points="661.03 386.17 699.5 398.67 723.27 365.94 699.5 333.22 661.03 345.72"/>
  <polygon class="cls-1" points="661.03 386.17 699.5 398.67 723.27 365.94 699.5 333.22 661.03 345.72 661.03 386.17"/>
  <polyline class="cls-3" points="661.03 345.72 699.5 333.22 723.27 365.94 747.05 333.22 785.52 345.72 785.52 305.27 747.05 317.77 723.27 285.04 699.5 317.77 661.03 305.27"/>
  <polygon class="cls-1" points="661.03 345.72 699.5 333.22 723.27 365.94 747.05 333.22 785.52 345.72 785.52 305.27 747.05 317.77 723.27 285.04 699.5 317.77 661.03 305.27 661.03 345.72"/>
  <polyline class="cls-5" points="661.03 305.27 699.5 317.77 723.27 285.04 699.5 252.32 661.03 264.82"/>
  <polygon class="cls-1" points="661.03 305.27 699.5 317.77 723.27 285.04 699.5 252.32 661.03 264.82 661.03 305.27"/>
  <polyline class="cls-5" points="661.03 174.37 699.5 186.87 723.27 154.14 699.5 121.42 661.03 133.92"/>
  <polygon class="cls-1" points="661.03 174.37 699.5 186.87 723.27 154.14 699.5 121.42 661.03 133.92 661.03 174.37"/>
  <polyline class="cls-3" points="661.03 133.92 699.5 121.42 723.27 154.14 747.05 121.42 785.52 133.92 785.52 93.46 747.05 105.96 723.27 73.24 699.5 105.96 661.03 93.46"/>
  <polygon class="cls-1" points="661.03 133.92 699.5 121.42 723.27 154.14 747.05 121.42 785.52 133.92 785.52 93.46 747.05 105.96 723.27 73.24 699.5 105.96 661.03 93.46 661.03 133.92"/>
  <polyline class="cls-5" points="661.03 93.46 699.5 105.96 723.27 73.24 699.5 40.51 661.03 53.01"/>
  <polygon class="cls-1" points="661.03 93.46 699.5 105.96 723.27 73.24 699.5 40.51 661.03 53.01 661.03 93.46"/>
</svg>